<svg xmlns="http://www.w3.org/2000/svg" xmlns:xlink="http://www.w3.org/1999/xlink" width="500" zoomAndPan="magnify" viewBox="0 0 375 374.999991" height="500" preserveAspectRatio="xMidYMid meet" version="1.0"><defs><g/><clipPath id="d4bb3a2a23"><path d="M 101 118.863281 L 138 118.863281 L 138 164 L 101 164 Z M 101 118.863281 " clip-rule="nonzero"/></clipPath><clipPath id="a474ae8fc4"><path d="M 55.097656 144 L 182.597656 144 L 182.597656 247.863281 L 55.097656 247.863281 Z M 55.097656 144 " clip-rule="nonzero"/></clipPath></defs><path fill="#ffffff" d="M 147.660156 224.113281 L 142.871094 224.3125 C 141.273438 224.394531 139.679688 224.492188 138.085938 224.597656 L 133.300781 224.96875 L 128.523438 225.40625 L 123.753906 225.945312 L 118.992188 226.554688 L 114.234375 227.234375 C 112.652344 227.480469 111.070312 227.726562 109.488281 227.996094 L 104.757812 228.847656 L 100.039062 229.761719 L 95.328125 230.746094 L 90.636719 231.800781 L 85.964844 232.945312 L 85.574219 233.046875 L 85.855469 231.621094 L 86.894531 225.933594 L 87.828125 220.226562 L 88.683594 214.503906 L 89.433594 208.769531 L 90.101562 203.019531 L 90.675781 197.265625 L 91.148438 191.5 L 91.546875 185.730469 L 91.835938 179.953125 L 92.042969 174.171875 L 92.136719 168.390625 L 92.140625 162.609375 L 92.0625 156.828125 L 91.90625 151.050781 C 91.871094 150.070312 91.824219 149.089844 91.773438 148.109375 L 104.164062 149.519531 L 119.492188 151.121094 L 127.164062 151.863281 L 134.839844 152.578125 L 142.523438 153.238281 C 145.085938 153.433594 147.648438 153.652344 150.214844 153.820312 C 147.699219 153.285156 145.175781 152.796875 142.652344 152.285156 L 135.082031 150.832031 L 127.5 149.433594 L 119.917969 148.054688 L 104.730469 145.425781 L 89.527344 142.941406 L 86.742188 142.484375 L 86.757812 145.4375 C 86.765625 147.339844 86.753906 149.242188 86.785156 151.144531 L 86.773438 156.851562 L 86.679688 162.558594 L 86.507812 168.257812 L 86.269531 173.957031 L 85.980469 179.652344 L 85.613281 185.34375 L 85.195312 191.027344 L 84.699219 196.707031 L 84.140625 202.382812 L 83.511719 208.046875 L 82.8125 213.707031 L 82.058594 219.359375 L 81.222656 225 L 80.339844 230.632812 L 79.371094 236.253906 L 78.621094 240.636719 L 82.804688 239.394531 L 87.351562 238.046875 L 91.914062 236.761719 L 96.488281 235.515625 L 101.082031 234.320312 L 105.6875 233.191406 L 110.316406 232.121094 C 111.863281 231.792969 113.410156 231.441406 114.953125 231.089844 L 119.601562 230.101562 L 124.265625 229.179688 L 128.941406 228.3125 L 133.628906 227.46875 L 138.328125 226.691406 C 139.898438 226.457031 141.46875 226.210938 143.039062 225.957031 L 147.761719 225.261719 L 152.492188 224.609375 L 157.234375 223.988281 C 154.046875 223.980469 150.851562 224.007812 147.660156 224.113281 Z M 147.660156 224.113281 " fill-opacity="1" fill-rule="nonzero"/><path fill="#ffffff" d="M 93.988281 176.304688 C 93.957031 177.796875 93.910156 179.289062 93.847656 180.78125 C 93.785156 182.273438 93.742188 183.765625 93.652344 185.253906 L 93.40625 189.726562 L 93.089844 194.191406 C 93 195.679688 92.855469 197.164062 92.738281 198.652344 C 92.625 200.140625 92.492188 201.625 92.320312 203.105469 C 92.15625 204.585938 92.019531 206.070312 91.832031 207.550781 L 91.238281 211.976562 C 91.050781 213.457031 90.757812 214.917969 90.527344 216.386719 L 90.152344 218.585938 L 89.699219 220.765625 C 89.367188 222.214844 89.152344 223.691406 88.761719 225.125 L 87.664062 229.4375 L 87.34375 230.6875 L 88.558594 230.324219 C 92.921875 229.019531 97.363281 227.875 101.8125 226.828125 C 102.921875 226.558594 104.042969 226.324219 105.15625 226.070312 L 108.507812 225.34375 C 109.625 225.101562 110.742188 224.859375 111.867188 224.644531 C 112.988281 224.429688 114.109375 224.195312 115.234375 223.992188 L 118.613281 223.394531 C 119.738281 223.195312 120.871094 223.039062 122.003906 222.859375 C 123.128906 222.679688 124.261719 222.515625 125.398438 222.382812 L 128.800781 221.941406 L 132.214844 221.582031 C 133.355469 221.441406 134.496094 221.398438 135.636719 221.308594 C 136.78125 221.226562 137.921875 221.132812 139.066406 221.113281 L 142.503906 220.988281 L 139.0625 220.914062 C 137.914062 220.867188 136.769531 220.929688 135.621094 220.953125 C 134.472656 220.992188 133.320312 220.992188 132.175781 221.078125 L 128.738281 221.292969 C 127.59375 221.382812 126.449219 221.492188 125.304688 221.609375 C 124.160156 221.714844 123.019531 221.847656 121.882812 222 C 120.742188 222.152344 119.601562 222.277344 118.464844 222.449219 L 115.054688 222.960938 C 113.917969 223.132812 112.789062 223.339844 111.65625 223.527344 C 110.523438 223.710938 109.394531 223.925781 108.265625 224.140625 C 107.132812 224.351562 106.003906 224.566406 104.882812 224.816406 C 103.761719 225.0625 102.632812 225.285156 101.515625 225.550781 C 97.441406 226.472656 93.398438 227.476562 89.367188 228.609375 L 90.195312 225.46875 C 90.402344 224.746094 90.558594 224.007812 90.707031 223.273438 L 91.167969 221.0625 L 91.609375 218.851562 L 91.964844 216.628906 C 92.1875 215.144531 92.472656 213.667969 92.644531 212.175781 L 93.207031 207.710938 C 93.382812 206.222656 93.507812 204.726562 93.660156 203.234375 C 93.816406 201.746094 93.9375 200.25 94.039062 198.753906 C 94.140625 197.261719 94.285156 195.769531 94.351562 194.273438 L 94.550781 189.78125 L 94.683594 185.292969 C 94.734375 183.796875 94.738281 182.296875 94.757812 180.800781 C 94.785156 179.304688 94.792969 177.808594 94.785156 176.3125 C 94.792969 174.816406 94.773438 173.320312 94.734375 171.824219 C 94.707031 170.324219 94.671875 168.832031 94.617188 167.335938 C 94.53125 164.34375 94.394531 161.355469 94.179688 158.371094 C 94.210938 161.363281 94.203125 164.351562 94.175781 167.339844 C 94.152344 170.332031 94.070312 173.320312 93.988281 176.304688 Z M 93.988281 176.304688 " fill-opacity="1" fill-rule="nonzero"/><path fill="#ffffff" d="M 80.53125 166.214844 L 79.066406 172.160156 C 78.5625 174.136719 78.105469 176.121094 77.625 178.105469 L 76.179688 184.046875 C 75.683594 186.027344 75.242188 188.015625 74.757812 189.996094 L 71.886719 201.875 L 70.429688 207.804688 L 68.941406 213.722656 C 67.957031 217.667969 66.882812 221.585938 65.796875 225.492188 C 65.238281 227.4375 64.652344 229.375 64.011719 231.285156 C 63.390625 233.195312 62.707031 235.085938 61.882812 236.867188 L 61.109375 238.542969 L 62.84375 238.363281 C 63.476562 238.300781 64.164062 238.265625 64.828125 238.238281 C 65.496094 238.203125 66.171875 238.1875 66.84375 238.191406 C 67.515625 238.1875 68.1875 238.210938 68.859375 238.246094 C 69.53125 238.277344 70.203125 238.335938 70.871094 238.410156 C 71.210938 238.433594 71.539062 238.492188 71.875 238.53125 C 72.210938 238.570312 72.542969 238.621094 72.875 238.6875 C 73.539062 238.796875 74.191406 238.953125 74.851562 239.121094 C 75.179688 239.203125 75.492188 239.320312 75.820312 239.414062 C 76.148438 239.507812 76.464844 239.625 76.777344 239.757812 C 77.082031 239.898438 77.417969 239.992188 77.710938 240.167969 L 78.617188 240.652344 L 77.792969 240.027344 C 77.523438 239.804688 77.210938 239.65625 76.917969 239.464844 C 76.625 239.277344 76.320312 239.105469 76.003906 238.960938 C 75.691406 238.8125 75.382812 238.640625 75.058594 238.515625 C 74.414062 238.253906 73.761719 238 73.089844 237.800781 C 72.757812 237.6875 72.421875 237.589844 72.085938 237.503906 C 71.746094 237.417969 71.410156 237.3125 71.070312 237.242188 C 69.707031 236.929688 68.320312 236.722656 66.933594 236.5625 C 66.234375 236.484375 65.539062 236.421875 64.839844 236.382812 C 64.714844 236.375 64.589844 236.375 64.46875 236.367188 C 65.179688 234.988281 65.8125 233.585938 66.40625 232.179688 C 67.191406 230.261719 67.902344 228.328125 68.59375 226.386719 C 69.273438 224.445312 69.941406 222.496094 70.535156 220.53125 C 71.140625 218.570312 71.738281 216.605469 72.304688 214.636719 C 72.890625 212.671875 73.429688 210.695312 73.949219 208.714844 L 75.488281 202.765625 C 76.519531 198.804688 77.410156 194.8125 78.316406 190.824219 C 78.761719 188.828125 79.226562 186.835938 79.636719 184.832031 L 80.863281 178.824219 C 81.269531 176.820312 81.679688 174.816406 82.042969 172.804688 L 83.144531 166.773438 C 83.519531 164.761719 83.828125 162.738281 84.167969 160.722656 C 84.503906 158.707031 84.835938 156.691406 85.125 154.664062 C 85.738281 150.621094 86.292969 146.566406 86.738281 142.496094 C 85.625 146.4375 84.566406 150.386719 83.542969 154.339844 C 83.019531 156.316406 82.523438 158.296875 82.023438 160.277344 C 81.53125 162.257812 81.003906 164.230469 80.53125 166.214844 Z M 80.53125 166.214844 " fill-opacity="1" fill-rule="nonzero"/><g clip-path="url(#d4bb3a2a23)"><path fill="#ffffff" d="M 101.832031 158.898438 C 101.832031 160.324219 102.988281 161.480469 104.410156 161.480469 C 105.832031 161.480469 106.988281 160.324219 106.988281 158.898438 C 106.988281 157.476562 105.832031 156.320312 104.410156 156.320312 C 104.273438 156.320312 104.144531 156.339844 104.015625 156.359375 C 103.972656 155.722656 103.960938 155.023438 103.929688 154.265625 C 103.9375 153.476562 103.925781 152.628906 103.949219 151.726562 C 104.027344 149.917969 104.214844 147.890625 104.558594 145.714844 C 104.941406 143.542969 105.503906 141.222656 106.28125 138.84375 C 107.070312 136.46875 108.132812 134.042969 109.429688 131.671875 C 109.765625 131.097656 110.101562 130.519531 110.445312 129.9375 C 110.828125 129.351562 111.210938 128.761719 111.597656 128.167969 C 112.382812 127.050781 113.230469 125.980469 114.179688 125.078125 C 115.121094 124.167969 116.171875 123.453125 117.261719 123.035156 C 117.394531 122.992188 117.542969 122.929688 117.664062 122.898438 C 117.78125 122.867188 117.894531 122.835938 118.011719 122.800781 L 118.554688 122.703125 L 118.621094 122.691406 L 118.71875 122.6875 L 118.929688 122.671875 C 119.496094 122.625 120.074219 122.660156 120.648438 122.792969 C 122.980469 123.257812 125.25 125.011719 127.054688 126.988281 C 128.894531 129.089844 130.445312 131.386719 131.652344 133.78125 C 132.851562 136.175781 133.785156 138.636719 134.347656 141.0625 C 134.523438 141.660156 134.609375 142.265625 134.730469 142.859375 C 134.84375 143.453125 134.957031 144.042969 135.023438 144.625 C 135.097656 145.210938 135.183594 145.785156 135.246094 146.347656 C 135.28125 146.917969 135.3125 147.476562 135.351562 148.019531 C 135.402344 148.566406 135.375 149.105469 135.375 149.628906 C 135.363281 150.15625 135.382812 150.671875 135.355469 151.175781 C 135.269531 152.171875 135.273438 153.136719 135.117188 154.019531 C 134.996094 154.910156 134.886719 155.753906 134.710938 156.515625 C 134.550781 157.28125 134.433594 158 134.238281 158.613281 C 134.234375 158.621094 134.234375 158.625 134.230469 158.632812 C 133.96875 158.542969 133.691406 158.484375 133.394531 158.484375 C 131.972656 158.484375 130.816406 159.636719 130.816406 161.0625 C 130.816406 162.484375 131.96875 163.640625 133.394531 163.640625 C 134.820312 163.640625 135.972656 162.484375 135.972656 161.0625 C 135.972656 160.195312 135.542969 159.4375 134.890625 158.96875 C 134.90625 158.933594 134.921875 158.902344 134.9375 158.871094 C 135.242188 158.261719 135.472656 157.5625 135.757812 156.800781 C 136.070312 156.050781 136.273438 155.199219 136.523438 154.292969 C 136.800781 153.390625 136.933594 152.398438 137.15625 151.359375 C 137.257812 150.835938 137.289062 150.296875 137.359375 149.742188 C 137.414062 149.1875 137.496094 148.621094 137.5 148.035156 C 137.667969 145.707031 137.523438 143.15625 137.09375 140.5 C 136.671875 137.839844 135.878906 135.066406 134.664062 132.359375 C 133.464844 129.648438 131.828125 127 129.804688 124.59375 C 128.730469 123.371094 127.578125 122.230469 126.183594 121.265625 C 124.808594 120.300781 123.214844 119.484375 121.414062 119.109375 C 120.523438 118.914062 119.578125 118.855469 118.644531 118.9375 L 118.292969 118.96875 L 118.121094 118.984375 L 117.898438 119.023438 L 117.335938 119.132812 L 116.59375 119.328125 C 116.355469 119.398438 116.152344 119.480469 115.933594 119.558594 C 114.214844 120.222656 112.796875 121.308594 111.632812 122.472656 C 110.453125 123.644531 109.507812 124.925781 108.675781 126.222656 C 108.292969 126.859375 107.914062 127.492188 107.53125 128.125 C 107.171875 128.785156 106.824219 129.46875 106.480469 130.128906 C 105.175781 132.773438 104.25 135.464844 103.59375 138.058594 C 102.921875 140.648438 102.574219 143.160156 102.417969 145.472656 C 102.265625 147.789062 102.347656 149.910156 102.511719 151.773438 C 102.613281 152.703125 102.714844 153.574219 102.847656 154.371094 C 103.007812 155.164062 103.132812 155.890625 103.28125 156.542969 C 103.285156 156.558594 103.289062 156.574219 103.292969 156.589844 C 102.429688 157.003906 101.832031 157.878906 101.832031 158.898438 Z M 101.832031 158.898438 " fill-opacity="1" fill-rule="nonzero"/></g><g clip-path="url(#a474ae8fc4)"><path fill="#ffffff" d="M 176.003906 225.707031 C 173.800781 225.6875 171.59375 225.601562 169.390625 225.722656 L 162.777344 225.957031 L 161.121094 226.019531 C 160.570312 226.042969 160.023438 226.101562 159.472656 226.140625 L 156.175781 226.40625 C 153.980469 226.605469 151.769531 226.714844 149.582031 227.007812 L 143.015625 227.851562 C 140.820312 228.089844 138.65625 228.535156 136.476562 228.882812 C 134.300781 229.265625 132.113281 229.582031 129.960938 230.070312 L 123.472656 231.429688 L 117.039062 233.019531 C 114.894531 233.542969 112.789062 234.214844 110.660156 234.808594 C 108.527344 235.386719 106.4375 236.105469 104.328125 236.773438 C 102.21875 237.425781 100.144531 238.191406 98.058594 238.925781 C 95.964844 239.640625 93.925781 240.492188 91.855469 241.273438 C 89.8125 242.121094 87.757812 242.9375 85.746094 243.859375 C 83.863281 244.6875 82.015625 245.570312 80.164062 246.515625 C 79.859375 246.277344 79.550781 246.035156 79.234375 245.816406 L 77.816406 244.992188 L 76.351562 244.3125 C 75.863281 244.085938 75.355469 243.921875 74.859375 243.722656 C 74.363281 243.523438 73.859375 243.363281 73.355469 243.203125 C 72.851562 243.042969 72.347656 242.867188 71.835938 242.734375 L 70.308594 242.316406 L 68.769531 241.949219 C 67.742188 241.710938 66.714844 241.496094 65.683594 241.296875 C 64.648438 241.097656 63.613281 240.917969 62.578125 240.75 C 60.839844 240.472656 59.097656 240.242188 57.339844 240.050781 L 58.265625 238.128906 L 58.953125 236.699219 L 59.535156 235.234375 C 60.292969 233.277344 61.132812 231.347656 61.777344 229.351562 C 62.441406 227.371094 63.183594 225.40625 63.792969 223.40625 L 65.667969 217.421875 L 67.417969 211.398438 C 68.019531 209.398438 68.53125 207.371094 69.078125 205.359375 C 70.183594 201.328125 71.183594 197.273438 72.21875 193.230469 C 73.210938 189.171875 74.21875 185.121094 75.164062 181.054688 C 76.132812 176.992188 77.058594 172.921875 77.957031 168.847656 C 78.855469 164.769531 79.734375 160.6875 80.597656 156.605469 C 81.457031 152.519531 82.289062 148.433594 83.085938 144.335938 L 80.253906 156.53125 C 79.296875 160.59375 78.320312 164.648438 77.332031 168.703125 L 74.320312 180.851562 C 73.320312 184.902344 72.257812 188.933594 71.207031 192.972656 C 70.117188 196.996094 69.058594 201.035156 67.898438 205.039062 C 67.316406 207.039062 66.785156 209.054688 66.179688 211.050781 L 64.40625 217.042969 L 62.511719 222.996094 C 61.898438 224.984375 61.152344 226.925781 60.480469 228.894531 C 59.828125 230.871094 58.996094 232.769531 58.238281 234.699219 L 57.65625 236.140625 L 56.980469 237.527344 L 55.636719 240.304688 L 55.171875 241.253906 L 56.195312 241.359375 C 58.238281 241.574219 60.304688 241.859375 62.34375 242.191406 C 63.367188 242.363281 64.386719 242.542969 65.398438 242.746094 C 66.414062 242.945312 67.425781 243.160156 68.429688 243.398438 L 69.933594 243.765625 L 71.417969 244.179688 C 71.917969 244.304688 72.402344 244.472656 72.890625 244.625 C 73.378906 244.78125 73.871094 244.929688 74.339844 245.121094 C 74.8125 245.304688 75.304688 245.460938 75.761719 245.671875 L 77.140625 246.300781 L 78.429688 247.042969 C 78.824219 247.320312 79.195312 247.625 79.585938 247.910156 L 80.015625 248.226562 L 80.425781 248.011719 C 82.34375 247.007812 84.328125 246.050781 86.328125 245.164062 C 88.316406 244.238281 90.351562 243.417969 92.375 242.570312 C 94.425781 241.785156 96.449219 240.925781 98.523438 240.207031 C 100.59375 239.46875 102.648438 238.695312 104.746094 238.039062 C 106.835938 237.363281 108.910156 236.640625 111.027344 236.054688 C 113.140625 235.457031 115.234375 234.777344 117.363281 234.246094 L 123.742188 232.578125 L 130.175781 231.132812 C 132.3125 230.617188 134.484375 230.265625 136.644531 229.859375 C 138.8125 229.480469 140.960938 229.007812 143.144531 228.738281 L 149.675781 227.800781 C 150.761719 227.625 151.859375 227.535156 152.953125 227.421875 L 156.234375 227.082031 L 159.515625 226.738281 C 160.0625 226.683594 160.609375 226.617188 161.15625 226.574219 L 162.804688 226.480469 L 169.398438 226.089844 C 171.59375 225.914062 173.796875 225.957031 176 225.910156 L 182.609375 225.808594 Z M 176.003906 225.707031 " fill-opacity="1" fill-rule="nonzero"/></g><g fill="#ffffff" fill-opacity="1"><g transform="translate(106.437778, 207.060015)"><g><path d="M 7.453125 0 L 2.421875 0 L 2.421875 -34.640625 L 15.234375 -34.640625 C 16.691406 -34.640625 18.003906 -34.34375 19.171875 -33.75 C 20.335938 -33.164062 21.320312 -32.375 22.125 -31.375 C 22.9375 -30.382812 23.554688 -29.273438 23.984375 -28.046875 C 24.410156 -26.828125 24.625 -25.582031 24.625 -24.3125 C 24.625 -23.039062 24.382812 -21.789062 23.90625 -20.5625 C 23.4375 -19.34375 22.734375 -18.238281 21.796875 -17.25 C 20.867188 -16.257812 19.71875 -15.46875 18.34375 -14.875 C 16.96875 -14.289062 15.378906 -14 13.578125 -14 L 7.453125 -14 Z M 10.390625 -34.1875 L 7.453125 -34.1875 L 7.453125 -14.515625 L 10.390625 -14.515625 C 11.910156 -14.515625 13.25 -14.789062 14.40625 -15.34375 C 15.5625 -15.894531 16.519531 -16.640625 17.28125 -17.578125 C 18.039062 -18.515625 18.617188 -19.5625 19.015625 -20.71875 C 19.410156 -21.875 19.609375 -23.050781 19.609375 -24.25 C 19.609375 -25.46875 19.414062 -26.664062 19.03125 -27.84375 C 18.65625 -29.03125 18.082031 -30.101562 17.3125 -31.0625 C 16.550781 -32.019531 15.59375 -32.78125 14.4375 -33.34375 C 13.289062 -33.90625 11.941406 -34.1875 10.390625 -34.1875 Z M 10.390625 -34.1875 "/></g></g></g><g fill="#ffffff" fill-opacity="1"><g transform="translate(135.593278, 207.060015)"><g><path d="M 7.453125 0 L 2.421875 0 L 2.421875 -34.640625 L 19.984375 -34.640625 C 21.253906 -34.640625 22.300781 -34.335938 23.125 -33.734375 C 23.945312 -33.140625 24.5625 -32.382812 24.96875 -31.46875 C 25.382812 -30.5625 25.59375 -29.632812 25.59375 -28.6875 C 25.59375 -27.300781 25.316406 -26.113281 24.765625 -25.125 C 24.210938 -24.144531 23.503906 -23.3125 22.640625 -22.625 C 21.773438 -21.945312 20.847656 -21.382812 19.859375 -20.9375 C 18.878906 -20.488281 17.957031 -20.097656 17.09375 -19.765625 C 16.226562 -19.429688 15.519531 -19.117188 14.96875 -18.828125 C 14.414062 -18.535156 14.140625 -18.21875 14.140625 -17.875 C 14.140625 -17.53125 14.328125 -16.957031 14.703125 -16.15625 C 15.085938 -15.363281 15.609375 -14.421875 16.265625 -13.328125 C 16.921875 -12.242188 17.648438 -11.109375 18.453125 -9.921875 C 19.265625 -8.734375 20.101562 -7.5625 20.96875 -6.40625 C 21.84375 -5.25 22.675781 -4.203125 23.46875 -3.265625 C 24.269531 -2.335938 24.992188 -1.59375 25.640625 -1.03125 C 26.285156 -0.476562 26.78125 -0.203125 27.125 -0.203125 L 27.125 0 L 21.40625 0 C 20.738281 0 20.222656 -0.0546875 19.859375 -0.171875 C 19.503906 -0.285156 19.164062 -0.523438 18.84375 -0.890625 C 18.519531 -1.265625 18.054688 -1.84375 17.453125 -2.625 C 16.878906 -3.394531 16.253906 -4.257812 15.578125 -5.21875 C 14.910156 -6.175781 14.253906 -7.160156 13.609375 -8.171875 C 12.960938 -9.191406 12.375 -10.175781 11.84375 -11.125 C 11.3125 -12.070312 10.890625 -12.929688 10.578125 -13.703125 C 10.265625 -14.472656 10.109375 -15.078125 10.109375 -15.515625 C 10.109375 -16.066406 10.363281 -16.5625 10.875 -17 C 11.382812 -17.445312 12.03125 -17.890625 12.8125 -18.328125 C 13.601562 -18.765625 14.445312 -19.253906 15.34375 -19.796875 C 16.25 -20.335938 17.09375 -20.984375 17.875 -21.734375 C 18.65625 -22.484375 19.300781 -23.398438 19.8125 -24.484375 C 20.320312 -25.578125 20.578125 -26.875 20.578125 -28.375 C 20.578125 -29.457031 20.382812 -30.429688 20 -31.296875 C 19.625 -32.160156 19.015625 -32.847656 18.171875 -33.359375 C 17.328125 -33.867188 16.222656 -34.125 14.859375 -34.125 L 7.453125 -34.125 Z M 7.453125 0 "/></g></g></g><g fill="#ffffff" fill-opacity="1"><g transform="translate(165.856787, 207.060015)"><g><path d="M 1.390625 -11.640625 C 1.390625 -13.117188 1.757812 -14.34375 2.5 -15.3125 C 3.238281 -16.28125 4.234375 -17.003906 5.484375 -17.484375 C 6.742188 -17.972656 8.160156 -18.21875 9.734375 -18.21875 C 10.890625 -18.21875 11.929688 -18.097656 12.859375 -17.859375 C 13.796875 -17.617188 14.671875 -17.335938 15.484375 -17.015625 C 16.296875 -16.691406 17.082031 -16.40625 17.84375 -16.15625 C 18.601562 -15.914062 19.390625 -15.796875 20.203125 -15.796875 C 20.585938 -15.796875 20.9375 -15.878906 21.25 -16.046875 C 21.5625 -16.222656 21.71875 -16.507812 21.71875 -16.90625 C 21.71875 -17.414062 21.394531 -17.867188 20.75 -18.265625 C 20.101562 -18.671875 19.28125 -19.03125 18.28125 -19.34375 C 17.289062 -19.65625 16.238281 -19.9375 15.125 -20.1875 C 14.019531 -20.445312 13.007812 -20.691406 12.09375 -20.921875 C 10.863281 -21.222656 9.664062 -21.53125 8.5 -21.84375 C 7.332031 -22.15625 6.273438 -22.554688 5.328125 -23.046875 C 4.390625 -23.546875 3.632812 -24.203125 3.0625 -25.015625 C 2.5 -25.835938 2.21875 -26.882812 2.21875 -28.15625 C 2.21875 -28.570312 2.316406 -29.070312 2.515625 -29.65625 C 2.710938 -30.25 3.054688 -30.851562 3.546875 -31.46875 C 4.046875 -32.082031 4.738281 -32.65625 5.625 -33.1875 C 6.519531 -33.71875 7.664062 -34.148438 9.0625 -34.484375 C 10.457031 -34.816406 12.148438 -34.984375 14.140625 -34.984375 C 15.035156 -34.984375 16.035156 -34.941406 17.140625 -34.859375 C 18.253906 -34.785156 19.375 -34.65625 20.5 -34.46875 C 21.632812 -34.28125 22.671875 -34.039062 23.609375 -33.75 C 24.546875 -33.46875 25.28125 -33.109375 25.8125 -32.671875 L 24.390625 -27.46875 C 23.710938 -27.957031 22.789062 -28.394531 21.625 -28.78125 C 20.46875 -29.175781 19.164062 -29.492188 17.71875 -29.734375 C 16.269531 -29.984375 14.8125 -30.109375 13.34375 -30.109375 C 10.820312 -30.109375 8.988281 -29.804688 7.84375 -29.203125 C 6.695312 -28.597656 6.125 -27.6875 6.125 -26.46875 C 6.125 -25.519531 6.453125 -24.738281 7.109375 -24.125 C 7.773438 -23.507812 8.644531 -22.992188 9.71875 -22.578125 C 10.789062 -22.171875 11.972656 -21.8125 13.265625 -21.5 C 14.554688 -21.1875 15.84375 -20.875 17.125 -20.5625 C 18.40625 -20.25 19.582031 -19.878906 20.65625 -19.453125 C 21.738281 -19.023438 22.609375 -18.488281 23.265625 -17.84375 C 23.921875 -17.195312 24.25 -16.375 24.25 -15.375 C 24.25 -14.519531 24.035156 -13.773438 23.609375 -13.140625 C 23.179688 -12.503906 22.613281 -12.007812 21.90625 -11.65625 C 21.207031 -11.300781 20.453125 -11.109375 19.640625 -11.078125 C 18.367188 -11.035156 17.171875 -11.171875 16.046875 -11.484375 C 14.929688 -11.796875 13.859375 -12.164062 12.828125 -12.59375 C 11.804688 -13.019531 10.773438 -13.398438 9.734375 -13.734375 C 8.691406 -14.066406 7.609375 -14.234375 6.484375 -14.234375 C 4.929688 -14.234375 3.796875 -13.976562 3.078125 -13.46875 C 2.367188 -12.96875 2.015625 -12.265625 2.015625 -11.359375 C 2.015625 -10.085938 2.441406 -9.019531 3.296875 -8.15625 C 4.148438 -7.289062 5.296875 -6.601562 6.734375 -6.09375 C 8.179688 -5.582031 9.816406 -5.21875 11.640625 -5 C 13.460938 -4.78125 15.34375 -4.671875 17.28125 -4.671875 C 18.738281 -4.671875 20.171875 -4.789062 21.578125 -5.03125 C 22.984375 -5.28125 24.273438 -5.898438 25.453125 -6.890625 L 23.375 -0.859375 C 22.457031 -0.421875 21.53125 -0.113281 20.59375 0.0625 C 19.65625 0.25 18.597656 0.34375 17.421875 0.34375 C 15.347656 0.34375 13.34375 0.128906 11.40625 -0.296875 C 9.476562 -0.722656 7.765625 -1.398438 6.265625 -2.328125 C 4.765625 -3.265625 3.578125 -4.492188 2.703125 -6.015625 C 1.828125 -7.546875 1.390625 -9.421875 1.390625 -11.640625 Z M 1.390625 -11.640625 "/></g></g></g><g fill="#ffffff" fill-opacity="1"><g transform="translate(195.56628, 207.060015)"><g><path d="M 12.0625 0.34375 C 10.488281 0.34375 8.960938 0.15625 7.484375 -0.21875 C 6.003906 -0.601562 4.671875 -1.097656 3.484375 -1.703125 C 2.296875 -2.316406 1.363281 -2.960938 0.6875 -3.640625 L 2.765625 -8.453125 C 4.015625 -7.691406 5.226562 -7.003906 6.40625 -6.390625 C 7.582031 -5.773438 8.832031 -5.296875 10.15625 -4.953125 C 11.488281 -4.609375 12.976562 -4.4375 14.625 -4.4375 C 15.382812 -4.4375 16.210938 -4.472656 17.109375 -4.546875 C 18.015625 -4.628906 18.921875 -4.773438 19.828125 -4.984375 C 20.742188 -5.191406 21.578125 -5.492188 22.328125 -5.890625 C 23.078125 -6.285156 23.675781 -6.78125 24.125 -7.375 C 24.570312 -7.976562 24.796875 -8.71875 24.796875 -9.59375 C 24.796875 -10.425781 24.550781 -11.109375 24.0625 -11.640625 C 23.582031 -12.171875 22.929688 -12.601562 22.109375 -12.9375 C 21.296875 -13.269531 20.378906 -13.539062 19.359375 -13.75 C 18.347656 -13.957031 17.296875 -14.132812 16.203125 -14.28125 C 15.117188 -14.4375 14.070312 -14.59375 13.0625 -14.75 C 10.144531 -15.257812 7.835938 -15.960938 6.140625 -16.859375 C 4.453125 -17.765625 3.242188 -18.90625 2.515625 -20.28125 C 1.785156 -21.65625 1.421875 -23.289062 1.421875 -25.1875 C 1.421875 -26.25 1.640625 -27.347656 2.078125 -28.484375 C 2.515625 -29.628906 3.234375 -30.691406 4.234375 -31.671875 C 5.242188 -32.660156 6.59375 -33.457031 8.28125 -34.0625 C 9.96875 -34.675781 12.054688 -34.984375 14.546875 -34.984375 C 15.742188 -34.984375 17.003906 -34.90625 18.328125 -34.75 C 19.660156 -34.601562 20.910156 -34.363281 22.078125 -34.03125 C 23.242188 -33.695312 24.1875 -33.242188 24.90625 -32.671875 L 23.484375 -27.40625 C 22.816406 -27.882812 21.898438 -28.320312 20.734375 -28.71875 C 19.566406 -29.113281 18.257812 -29.429688 16.8125 -29.671875 C 15.375 -29.910156 13.914062 -30.03125 12.4375 -30.03125 C 11.164062 -30.03125 9.910156 -29.929688 8.671875 -29.734375 C 7.441406 -29.535156 6.320312 -29.226562 5.3125 -28.8125 C 4.3125 -28.40625 3.507812 -27.863281 2.90625 -27.1875 C 2.3125 -26.519531 2.015625 -25.710938 2.015625 -24.765625 C 2.015625 -23.984375 2.238281 -23.347656 2.6875 -22.859375 C 3.132812 -22.378906 3.734375 -22.007812 4.484375 -21.75 C 5.234375 -21.5 6.0625 -21.320312 6.96875 -21.21875 C 7.882812 -21.113281 8.804688 -21.039062 9.734375 -21 C 10.660156 -20.96875 11.515625 -20.929688 12.296875 -20.890625 C 14.910156 -20.703125 17.203125 -20.207031 19.171875 -19.40625 C 21.148438 -18.613281 22.691406 -17.484375 23.796875 -16.015625 C 24.898438 -14.554688 25.453125 -12.738281 25.453125 -10.5625 C 25.453125 -8.875 25.082031 -7.351562 24.34375 -6 C 23.613281 -4.65625 22.617188 -3.507812 21.359375 -2.5625 C 20.097656 -1.613281 18.664062 -0.890625 17.0625 -0.390625 C 15.457031 0.0976562 13.789062 0.34375 12.0625 0.34375 Z M 12.0625 0.34375 "/></g></g></g><g fill="#ffffff" fill-opacity="1"><g transform="translate(224.860289, 207.060015)"><g><path d="M 1.046875 -28.953125 L 1.046875 -34.640625 L 25.59375 -34.640625 L 25.59375 -28.953125 C 24.832031 -29.742188 23.882812 -30.515625 22.75 -31.265625 C 21.625 -32.015625 20.445312 -32.65625 19.21875 -33.1875 C 18 -33.71875 16.867188 -34.019531 15.828125 -34.09375 L 15.828125 0 L 10.8125 0 L 10.8125 -34.09375 C 9.769531 -34.019531 8.632812 -33.71875 7.40625 -33.1875 C 6.1875 -32.65625 5.007812 -32.015625 3.875 -31.265625 C 2.75 -30.515625 1.804688 -29.742188 1.046875 -28.953125 Z M 1.046875 -28.953125 "/></g></g></g><g fill="#ffffff" fill-opacity="1"><g transform="translate(254.639049, 207.060015)"><g><path d="M 2.421875 0 L 2.421875 -34.640625 L 7.453125 -34.640625 L 7.453125 0 Z M 2.421875 0 "/></g></g></g><g fill="#ffffff" fill-opacity="1"><g transform="translate(267.659309, 207.060015)"><g><path d="M 16.21875 0.34375 C 13.738281 0.34375 11.566406 -0.144531 9.703125 -1.125 C 7.847656 -2.101562 6.300781 -3.445312 5.0625 -5.15625 C 3.832031 -6.863281 2.910156 -8.804688 2.296875 -10.984375 C 1.691406 -13.171875 1.390625 -15.46875 1.390625 -17.875 C 1.390625 -20.363281 1.738281 -22.644531 2.4375 -24.71875 C 3.144531 -26.800781 4.171875 -28.609375 5.515625 -30.140625 C 6.867188 -31.679688 8.515625 -32.875 10.453125 -33.71875 C 12.398438 -34.5625 14.597656 -34.984375 17.046875 -34.984375 C 18.242188 -34.984375 19.414062 -34.828125 20.5625 -34.515625 C 21.707031 -34.203125 22.726562 -33.785156 23.625 -33.265625 C 24.519531 -32.753906 25.175781 -32.160156 25.59375 -31.484375 L 22.203125 -27.4375 C 20.835938 -29.050781 19.21875 -30.351562 17.34375 -31.34375 C 15.476562 -32.34375 13.566406 -32.84375 11.609375 -32.84375 C 10.035156 -32.84375 8.800781 -32.414062 7.90625 -31.5625 C 7.019531 -30.707031 6.398438 -29.484375 6.046875 -27.890625 C 5.691406 -26.296875 5.515625 -24.390625 5.515625 -22.171875 C 5.515625 -20.160156 5.773438 -18.117188 6.296875 -16.046875 C 6.828125 -13.984375 7.539062 -12.007812 8.4375 -10.125 C 9.34375 -8.25 10.367188 -6.570312 11.515625 -5.09375 C 12.660156 -3.613281 13.84375 -2.445312 15.0625 -1.59375 C 16.289062 -0.738281 17.492188 -0.3125 18.671875 -0.3125 C 19.109375 -0.3125 19.582031 -0.398438 20.09375 -0.578125 C 20.601562 -0.765625 20.859375 -1.035156 20.859375 -1.390625 L 20.859375 -18.609375 L 25.953125 -18.609375 L 25.953125 -2.59375 C 25.234375 -1.945312 24.46875 -1.40625 23.65625 -0.96875 C 22.851562 -0.53125 21.867188 -0.203125 20.703125 0.015625 C 19.535156 0.234375 18.039062 0.34375 16.21875 0.34375 Z M 16.21875 0.34375 "/></g></g></g><g fill="#ffffff" fill-opacity="1"><g transform="translate(299.169316, 207.060015)"><g><path d="M 1.390625 -11.640625 C 1.390625 -13.117188 1.757812 -14.34375 2.5 -15.3125 C 3.238281 -16.28125 4.234375 -17.003906 5.484375 -17.484375 C 6.742188 -17.972656 8.160156 -18.21875 9.734375 -18.21875 C 10.890625 -18.21875 11.929688 -18.097656 12.859375 -17.859375 C 13.796875 -17.617188 14.671875 -17.335938 15.484375 -17.015625 C 16.296875 -16.691406 17.082031 -16.40625 17.84375 -16.15625 C 18.601562 -15.914062 19.390625 -15.796875 20.203125 -15.796875 C 20.585938 -15.796875 20.9375 -15.878906 21.25 -16.046875 C 21.5625 -16.222656 21.71875 -16.507812 21.71875 -16.90625 C 21.71875 -17.414062 21.394531 -17.867188 20.75 -18.265625 C 20.101562 -18.671875 19.28125 -19.03125 18.28125 -19.34375 C 17.289062 -19.65625 16.238281 -19.9375 15.125 -20.1875 C 14.019531 -20.445312 13.007812 -20.691406 12.09375 -20.921875 C 10.863281 -21.222656 9.664062 -21.53125 8.5 -21.84375 C 7.332031 -22.15625 6.273438 -22.554688 5.328125 -23.046875 C 4.390625 -23.546875 3.632812 -24.203125 3.0625 -25.015625 C 2.5 -25.835938 2.21875 -26.882812 2.21875 -28.15625 C 2.21875 -28.570312 2.316406 -29.070312 2.515625 -29.65625 C 2.710938 -30.25 3.054688 -30.851562 3.546875 -31.46875 C 4.046875 -32.082031 4.738281 -32.65625 5.625 -33.1875 C 6.519531 -33.71875 7.664062 -34.148438 9.0625 -34.484375 C 10.457031 -34.816406 12.148438 -34.984375 14.140625 -34.984375 C 15.035156 -34.984375 16.035156 -34.941406 17.140625 -34.859375 C 18.253906 -34.785156 19.375 -34.65625 20.5 -34.46875 C 21.632812 -34.28125 22.671875 -34.039062 23.609375 -33.75 C 24.546875 -33.46875 25.28125 -33.109375 25.8125 -32.671875 L 24.390625 -27.46875 C 23.710938 -27.957031 22.789062 -28.394531 21.625 -28.78125 C 20.46875 -29.175781 19.164062 -29.492188 17.71875 -29.734375 C 16.269531 -29.984375 14.8125 -30.109375 13.34375 -30.109375 C 10.820312 -30.109375 8.988281 -29.804688 7.84375 -29.203125 C 6.695312 -28.597656 6.125 -27.6875 6.125 -26.46875 C 6.125 -25.519531 6.453125 -24.738281 7.109375 -24.125 C 7.773438 -23.507812 8.644531 -22.992188 9.71875 -22.578125 C 10.789062 -22.171875 11.972656 -21.8125 13.265625 -21.5 C 14.554688 -21.1875 15.84375 -20.875 17.125 -20.5625 C 18.40625 -20.25 19.582031 -19.878906 20.65625 -19.453125 C 21.738281 -19.023438 22.609375 -18.488281 23.265625 -17.84375 C 23.921875 -17.195312 24.25 -16.375 24.25 -15.375 C 24.25 -14.519531 24.035156 -13.773438 23.609375 -13.140625 C 23.179688 -12.503906 22.613281 -12.007812 21.90625 -11.65625 C 21.207031 -11.300781 20.453125 -11.109375 19.640625 -11.078125 C 18.367188 -11.035156 17.171875 -11.171875 16.046875 -11.484375 C 14.929688 -11.796875 13.859375 -12.164062 12.828125 -12.59375 C 11.804688 -13.019531 10.773438 -13.398438 9.734375 -13.734375 C 8.691406 -14.066406 7.609375 -14.234375 6.484375 -14.234375 C 4.929688 -14.234375 3.796875 -13.976562 3.078125 -13.46875 C 2.367188 -12.96875 2.015625 -12.265625 2.015625 -11.359375 C 2.015625 -10.085938 2.441406 -9.019531 3.296875 -8.15625 C 4.148438 -7.289062 5.296875 -6.601562 6.734375 -6.09375 C 8.179688 -5.582031 9.816406 -5.21875 11.640625 -5 C 13.460938 -4.78125 15.34375 -4.671875 17.28125 -4.671875 C 18.738281 -4.671875 20.171875 -4.789062 21.578125 -5.03125 C 22.984375 -5.28125 24.273438 -5.898438 25.453125 -6.890625 L 23.375 -0.859375 C 22.457031 -0.421875 21.53125 -0.113281 20.59375 0.0625 C 19.65625 0.25 18.597656 0.34375 17.421875 0.34375 C 15.347656 0.34375 13.34375 0.128906 11.40625 -0.296875 C 9.476562 -0.722656 7.765625 -1.398438 6.265625 -2.328125 C 4.765625 -3.265625 3.578125 -4.492188 2.703125 -6.015625 C 1.828125 -7.546875 1.390625 -9.421875 1.390625 -11.640625 Z M 1.390625 -11.640625 "/></g></g></g><g fill="#ffffff" fill-opacity="1"><g transform="translate(182.689269, 228.827783)"><g><path d="M 5.90625 0.171875 C 5.15625 0.171875 4.460938 0.0390625 3.828125 -0.21875 C 3.191406 -0.476562 2.632812 -0.84375 2.15625 -1.3125 C 1.6875 -1.78125 1.320312 -2.328125 1.0625 -2.953125 C 0.8125 -3.578125 0.6875 -4.257812 0.6875 -5 C 0.6875 -5.726562 0.8125 -6.40625 1.0625 -7.03125 C 1.320312 -7.664062 1.6875 -8.210938 2.15625 -8.671875 C 2.632812 -9.140625 3.191406 -9.503906 3.828125 -9.765625 C 4.460938 -10.035156 5.15625 -10.171875 5.90625 -10.171875 C 6.675781 -10.171875 7.378906 -10.035156 8.015625 -9.765625 C 8.648438 -9.503906 9.203125 -9.140625 9.671875 -8.671875 C 10.140625 -8.210938 10.503906 -7.671875 10.765625 -7.046875 C 11.023438 -6.421875 11.15625 -5.738281 11.15625 -5 C 11.15625 -4.257812 11.023438 -3.570312 10.765625 -2.9375 C 10.503906 -2.3125 10.140625 -1.765625 9.671875 -1.296875 C 9.203125 -0.835938 8.648438 -0.476562 8.015625 -0.21875 C 7.378906 0.0390625 6.675781 0.171875 5.90625 0.171875 Z M 5.90625 -1.0625 C 6.675781 -1.0625 7.359375 -1.226562 7.953125 -1.5625 C 8.546875 -1.90625 9.015625 -2.375 9.359375 -2.96875 C 9.703125 -3.570312 9.875 -4.25 9.875 -5 C 9.875 -5.75 9.703125 -6.421875 9.359375 -7.015625 C 9.015625 -7.609375 8.546875 -8.078125 7.953125 -8.421875 C 7.359375 -8.765625 6.675781 -8.9375 5.90625 -8.9375 C 5.15625 -8.9375 4.484375 -8.757812 3.890625 -8.40625 C 3.296875 -8.0625 2.828125 -7.59375 2.484375 -7 C 2.140625 -6.40625 1.96875 -5.738281 1.96875 -5 C 1.96875 -4.25 2.140625 -3.578125 2.484375 -2.984375 C 2.828125 -2.390625 3.296875 -1.921875 3.890625 -1.578125 C 4.484375 -1.234375 5.15625 -1.0625 5.90625 -1.0625 Z M 5.90625 -1.0625 "/></g></g></g><g fill="#ffffff" fill-opacity="1"><g transform="translate(198.264703, 228.827783)"><g><path d="M 8.109375 -10 L 9.34375 -10 L 9.34375 0 L 8.28125 0 L 2.578125 -7.796875 L 2.578125 0 L 1.375 0 L 1.375 -10 L 2.5 -10 L 8.109375 -2.28125 Z M 8.109375 -10 "/></g></g></g><g fill="#ffffff" fill-opacity="1"><g transform="translate(212.698268, 228.827783)"><g><path d="M 2.609375 -1.171875 L 7.015625 -1.171875 L 7.015625 0 L 1.375 0 L 1.375 -10 L 2.609375 -10 Z M 2.609375 -1.171875 "/></g></g></g><g fill="#ffffff" fill-opacity="1"><g transform="translate(223.749017, 228.827783)"><g><path d="M 1.375 0 L 1.375 -10 L 2.609375 -10 L 2.609375 0 Z M 1.375 0 "/></g></g></g><g fill="#ffffff" fill-opacity="1"><g transform="translate(231.474045, 228.827783)"><g><path d="M 8.109375 -10 L 9.34375 -10 L 9.34375 0 L 8.28125 0 L 2.578125 -7.796875 L 2.578125 0 L 1.375 0 L 1.375 -10 L 2.5 -10 L 8.109375 -2.28125 Z M 8.109375 -10 "/></g></g></g><g fill="#ffffff" fill-opacity="1"><g transform="translate(245.907607, 228.827783)"><g><path d="M 2.609375 -1.203125 L 7.1875 -1.203125 L 7.1875 0 L 1.375 0 L 1.375 -10 L 7.03125 -10 L 7.03125 -8.8125 L 2.609375 -8.8125 L 2.609375 -5.71875 L 6.65625 -5.71875 L 6.65625 -4.5625 L 2.609375 -4.5625 Z M 2.609375 -1.203125 "/></g></g></g><g fill="#ffffff" fill-opacity="1"><g transform="translate(257.54357, 228.827783)"><g/></g></g><g fill="#ffffff" fill-opacity="1"><g transform="translate(265.025945, 228.827783)"><g><path d="M 4.34375 0.125 C 3.601562 0.125 2.957031 -0.00390625 2.40625 -0.265625 C 1.851562 -0.523438 1.421875 -0.894531 1.109375 -1.375 C 0.804688 -1.851562 0.65625 -2.421875 0.65625 -3.078125 L 1.921875 -3.078125 C 1.921875 -2.453125 2.148438 -1.960938 2.609375 -1.609375 C 3.066406 -1.265625 3.640625 -1.09375 4.328125 -1.09375 C 4.742188 -1.09375 5.125 -1.160156 5.46875 -1.296875 C 5.8125 -1.441406 6.082031 -1.644531 6.28125 -1.90625 C 6.476562 -2.164062 6.578125 -2.472656 6.578125 -2.828125 C 6.578125 -3.210938 6.460938 -3.515625 6.234375 -3.734375 C 6.003906 -3.953125 5.695312 -4.117188 5.3125 -4.234375 C 4.925781 -4.359375 4.519531 -4.46875 4.09375 -4.5625 C 3.707031 -4.664062 3.320312 -4.773438 2.9375 -4.890625 C 2.5625 -5.003906 2.210938 -5.15625 1.890625 -5.34375 C 1.566406 -5.539062 1.3125 -5.796875 1.125 -6.109375 C 0.9375 -6.429688 0.84375 -6.84375 0.84375 -7.34375 C 0.84375 -8.207031 1.148438 -8.882812 1.765625 -9.375 C 2.390625 -9.875 3.210938 -10.125 4.234375 -10.125 C 5.273438 -10.125 6.09375 -9.859375 6.6875 -9.328125 C 7.28125 -8.796875 7.578125 -8.078125 7.578125 -7.171875 L 6.34375 -7.171875 C 6.34375 -7.722656 6.140625 -8.148438 5.734375 -8.453125 C 5.335938 -8.765625 4.835938 -8.921875 4.234375 -8.921875 C 3.617188 -8.921875 3.109375 -8.785156 2.703125 -8.515625 C 2.296875 -8.242188 2.09375 -7.867188 2.09375 -7.390625 C 2.09375 -7.023438 2.207031 -6.738281 2.4375 -6.53125 C 2.664062 -6.332031 2.960938 -6.171875 3.328125 -6.046875 C 3.703125 -5.929688 4.101562 -5.828125 4.53125 -5.734375 C 4.914062 -5.628906 5.304688 -5.515625 5.703125 -5.390625 C 6.097656 -5.273438 6.457031 -5.113281 6.78125 -4.90625 C 7.113281 -4.707031 7.378906 -4.441406 7.578125 -4.109375 C 7.773438 -3.773438 7.875 -3.351562 7.875 -2.84375 C 7.875 -2.21875 7.71875 -1.679688 7.40625 -1.234375 C 7.09375 -0.796875 6.671875 -0.457031 6.140625 -0.21875 C 5.609375 0.0078125 5.007812 0.125 4.34375 0.125 Z M 4.34375 0.125 "/></g></g></g><g fill="#ffffff" fill-opacity="1"><g transform="translate(277.289937, 228.827783)"><g><path d="M 7.796875 -10 L 9.046875 -10 L 9.046875 0 L 7.796875 0 L 7.796875 -4.546875 L 2.609375 -4.546875 L 2.609375 0 L 1.375 0 L 1.375 -10 L 2.609375 -10 L 2.609375 -5.734375 L 7.796875 -5.734375 Z M 7.796875 -10 "/></g></g></g><g fill="#ffffff" fill-opacity="1"><g transform="translate(291.438026, 228.827783)"><g><path d="M 5.90625 0.171875 C 5.15625 0.171875 4.460938 0.0390625 3.828125 -0.21875 C 3.191406 -0.476562 2.632812 -0.84375 2.15625 -1.3125 C 1.6875 -1.78125 1.320312 -2.328125 1.0625 -2.953125 C 0.8125 -3.578125 0.6875 -4.257812 0.6875 -5 C 0.6875 -5.726562 0.8125 -6.40625 1.0625 -7.03125 C 1.320312 -7.664062 1.6875 -8.210938 2.15625 -8.671875 C 2.632812 -9.140625 3.191406 -9.503906 3.828125 -9.765625 C 4.460938 -10.035156 5.15625 -10.171875 5.90625 -10.171875 C 6.675781 -10.171875 7.378906 -10.035156 8.015625 -9.765625 C 8.648438 -9.503906 9.203125 -9.140625 9.671875 -8.671875 C 10.140625 -8.210938 10.503906 -7.671875 10.765625 -7.046875 C 11.023438 -6.421875 11.15625 -5.738281 11.15625 -5 C 11.15625 -4.257812 11.023438 -3.570312 10.765625 -2.9375 C 10.503906 -2.3125 10.140625 -1.765625 9.671875 -1.296875 C 9.203125 -0.835938 8.648438 -0.476562 8.015625 -0.21875 C 7.378906 0.0390625 6.675781 0.171875 5.90625 0.171875 Z M 5.90625 -1.0625 C 6.675781 -1.0625 7.359375 -1.226562 7.953125 -1.5625 C 8.546875 -1.90625 9.015625 -2.375 9.359375 -2.96875 C 9.703125 -3.570312 9.875 -4.25 9.875 -5 C 9.875 -5.75 9.703125 -6.421875 9.359375 -7.015625 C 9.015625 -7.609375 8.546875 -8.078125 7.953125 -8.421875 C 7.359375 -8.765625 6.675781 -8.9375 5.90625 -8.9375 C 5.15625 -8.9375 4.484375 -8.757812 3.890625 -8.40625 C 3.296875 -8.0625 2.828125 -7.59375 2.484375 -7 C 2.140625 -6.40625 1.96875 -5.738281 1.96875 -5 C 1.96875 -4.25 2.140625 -3.578125 2.484375 -2.984375 C 2.828125 -2.390625 3.296875 -1.921875 3.890625 -1.578125 C 4.484375 -1.234375 5.15625 -1.0625 5.90625 -1.0625 Z M 5.90625 -1.0625 "/></g></g></g><g fill="#ffffff" fill-opacity="1"><g transform="translate(307.013456, 228.827783)"><g><path d="M 4.953125 -10 C 5.578125 -10 6.140625 -9.859375 6.640625 -9.578125 C 7.140625 -9.304688 7.535156 -8.925781 7.828125 -8.4375 C 8.117188 -7.957031 8.265625 -7.410156 8.265625 -6.796875 C 8.265625 -6.191406 8.117188 -5.644531 7.828125 -5.15625 C 7.535156 -4.664062 7.140625 -4.28125 6.640625 -4 C 6.140625 -3.726562 5.578125 -3.59375 4.953125 -3.59375 L 2.609375 -3.59375 L 2.609375 0 L 1.375 0 L 1.375 -10 Z M 4.890625 -4.8125 C 5.492188 -4.8125 5.992188 -5 6.390625 -5.375 C 6.785156 -5.75 6.984375 -6.222656 6.984375 -6.796875 C 6.984375 -7.367188 6.785156 -7.84375 6.390625 -8.21875 C 5.992188 -8.59375 5.492188 -8.78125 4.890625 -8.78125 L 2.609375 -8.78125 L 2.609375 -4.8125 Z M 4.890625 -4.8125 "/></g></g></g></svg>