<svg xmlns="http://www.w3.org/2000/svg" xmlns:xlink="http://www.w3.org/1999/xlink" width="500" zoomAndPan="magnify" viewBox="0 0 375 374.999991" height="500" preserveAspectRatio="xMidYMid meet" version="1.0"><defs><g/><clipPath id="bc8209e966"><path d="M 92.167969 221.066406 L 187.5 221.066406 L 187.5 226.597656 L 92.167969 226.597656 Z M 92.167969 221.066406 " clip-rule="nonzero"/></clipPath></defs><g fill="#000000" fill-opacity="1"><g transform="translate(-4.767987, 204.605682)"><g><path d="M 41.0625 -14.25 C 41.0625 -12.425781 40.664062 -10.644531 39.875 -8.90625 C 39.03125 -7.175781 37.863281 -5.644531 36.375 -4.3125 C 34.84375 -2.925781 33.0625 -1.859375 31.03125 -1.109375 C 28.957031 -0.367188 26.78125 0 24.5 0 L 6.3125 0 L 6.3125 -48.34375 L 20.859375 -48.34375 C 25.367188 -48.34375 29.054688 -47.050781 31.921875 -44.46875 C 33.265625 -43.28125 34.304688 -41.894531 35.046875 -40.3125 C 35.734375 -38.6875 36.078125 -37.003906 36.078125 -35.265625 C 36.078125 -33.785156 35.832031 -32.351562 35.34375 -30.96875 C 34.800781 -29.582031 34.054688 -28.390625 33.109375 -27.390625 L 32.515625 -26.734375 C 34.742188 -25.742188 36.675781 -24.257812 38.3125 -22.28125 C 40.144531 -19.800781 41.0625 -17.125 41.0625 -14.25 Z M 12.46875 -28.65625 L 20.71875 -28.65625 C 22.84375 -28.65625 24.5 -28.90625 25.6875 -29.40625 C 28.457031 -30.84375 29.84375 -32.796875 29.84375 -35.265625 C 29.84375 -37.148438 29.050781 -38.757812 27.46875 -40.09375 C 25.882812 -41.425781 23.679688 -42.09375 20.859375 -42.09375 L 12.46875 -42.09375 Z M 24.5 -6.234375 C 26.53125 -6.234375 28.335938 -6.601562 29.921875 -7.34375 C 31.453125 -8.09375 32.664062 -9.109375 33.5625 -10.390625 C 34.40625 -11.679688 34.828125 -12.96875 34.828125 -14.25 C 34.828125 -15.632812 34.40625 -16.945312 33.5625 -18.1875 C 32.71875 -19.425781 31.53125 -20.394531 30 -21.09375 C 27.820312 -22.03125 25.195312 -22.5 22.125 -22.5 L 12.46875 -22.5 L 12.46875 -6.234375 Z M 24.5 -6.234375 "/></g></g></g><g fill="#000000" fill-opacity="1"><g transform="translate(33.692983, 204.605682)"><g><path d="M 49.078125 -11.875 C 46.847656 -8.0625 43.878906 -5.066406 40.171875 -2.890625 C 36.410156 -0.660156 32.328125 0.453125 27.921875 0.453125 C 23.460938 0.453125 19.378906 -0.660156 15.671875 -2.890625 C 11.910156 -5.066406 8.9375 -8.0625 6.75 -11.875 C 4.570312 -15.632812 3.484375 -19.742188 3.484375 -24.203125 C 3.484375 -28.609375 4.570312 -32.71875 6.75 -36.53125 C 8.976562 -40.289062 11.972656 -43.285156 15.734375 -45.515625 C 19.453125 -47.691406 23.515625 -48.78125 27.921875 -48.78125 C 32.273438 -48.78125 36.359375 -47.691406 40.171875 -45.515625 C 43.929688 -43.285156 46.898438 -40.289062 49.078125 -36.53125 C 51.253906 -32.71875 52.34375 -28.609375 52.34375 -24.203125 C 52.34375 -19.796875 51.253906 -15.6875 49.078125 -11.875 Z M 43.734375 -33.40625 C 42.097656 -36.226562 39.867188 -38.484375 37.046875 -40.171875 C 34.222656 -41.804688 31.179688 -42.625 27.921875 -42.625 C 24.597656 -42.625 21.550781 -41.804688 18.78125 -40.171875 C 15.957031 -38.484375 13.734375 -36.226562 12.109375 -33.40625 C 10.472656 -30.59375 9.65625 -27.523438 9.65625 -24.203125 C 9.65625 -20.835938 10.472656 -17.742188 12.109375 -14.921875 C 13.734375 -12.097656 15.957031 -9.867188 18.78125 -8.234375 C 21.601562 -6.554688 24.648438 -5.71875 27.921875 -5.71875 C 31.285156 -5.71875 34.351562 -6.554688 37.125 -8.234375 C 39.945312 -9.867188 42.175781 -12.097656 43.8125 -14.921875 C 45.394531 -17.742188 46.1875 -20.835938 46.1875 -24.203125 C 46.1875 -27.523438 45.367188 -30.59375 43.734375 -33.40625 Z M 43.734375 -33.40625 "/></g></g></g><g fill="#000000" fill-opacity="1"><g transform="translate(83.06864, 204.605682)"><g><path d="M 38.46875 -5.203125 C 36.675781 -3.367188 34.644531 -1.984375 32.375 -1.046875 C 30.09375 -0.046875 27.664062 0.453125 25.09375 0.453125 C 22.570312 0.453125 20.171875 -0.046875 17.890625 -1.046875 C 15.566406 -1.984375 13.539062 -3.367188 11.8125 -5.203125 C 10.019531 -6.984375 8.65625 -9.035156 7.71875 -11.359375 C 6.78125 -13.640625 6.3125 -16.066406 6.3125 -18.640625 L 6.3125 -48.34375 L 12.46875 -48.34375 L 12.46875 -18.640625 C 12.46875 -16.898438 12.789062 -15.238281 13.4375 -13.65625 C 14.082031 -12.070312 15 -10.6875 16.1875 -9.5 C 18.8125 -6.976562 21.78125 -5.71875 25.09375 -5.71875 C 26.726562 -5.71875 28.335938 -6.0625 29.921875 -6.75 C 31.453125 -7.394531 32.8125 -8.3125 34 -9.5 C 35.1875 -10.6875 36.101562 -12.070312 36.75 -13.65625 C 37.394531 -15.238281 37.71875 -16.898438 37.71875 -18.640625 L 37.71875 -48.34375 L 43.875 -48.34375 L 43.875 -18.640625 C 43.875 -16.066406 43.40625 -13.640625 42.46875 -11.359375 C 41.53125 -9.035156 40.195312 -6.984375 38.46875 -5.203125 Z M 38.46875 -5.203125 "/></g></g></g><g fill="#000000" fill-opacity="1"><g transform="translate(126.801332, 204.605682)"><g><path d="M 6.3125 -48.34375 L 12.625 -48.34375 L 12.625 -6.15625 L 37.203125 -6.15625 L 37.203125 0 L 6.3125 0 Z M 6.3125 -48.34375 "/></g></g></g><g fill="#000000" fill-opacity="1"><g transform="translate(163.109067, 204.605682)"><g><path d="M 6.3125 -48.34375 L 37.203125 -48.34375 L 37.203125 -42.09375 L 12.46875 -42.09375 L 12.46875 -27.328125 L 31.40625 -27.328125 L 31.40625 -21.09375 L 12.46875 -21.09375 L 12.46875 -6.15625 L 37.203125 -6.15625 L 37.203125 0 L 6.3125 0 Z M 6.3125 -48.34375 "/></g></g></g><g fill="#000000" fill-opacity="1"><g transform="translate(200.159298, 204.605682)"><g><path d="M 10.03125 -48.34375 L 25.3125 -14.109375 L 40.609375 -48.34375 L 47.453125 -48.34375 L 25.3125 1.1875 L 3.265625 -48.34375 Z M 10.03125 -48.34375 "/></g></g></g><g fill="#000000" fill-opacity="1"><g transform="translate(244.560243, 204.605682)"><g><path d="M 36.75 -9.359375 L 14.625 -9.359375 L 10.328125 0 L 3.484375 0 L 26.140625 -48.859375 L 47.59375 0 L 40.84375 0 Z M 34.078125 -15.515625 L 25.90625 -33.859375 L 17.453125 -15.515625 Z M 34.078125 -15.515625 "/></g></g></g><g fill="#000000" fill-opacity="1"><g transform="translate(289.109671, 204.605682)"><g><path d="M 40.390625 0 L 32.59375 0 L 14.25 -25.90625 L 21.234375 -25.90625 C 23.015625 -25.90625 24.597656 -26.03125 25.984375 -26.28125 C 27.328125 -26.476562 28.367188 -26.726562 29.109375 -27.03125 C 30.640625 -27.71875 31.851562 -28.734375 32.75 -30.078125 C 33.632812 -31.359375 34.078125 -32.691406 34.078125 -34.078125 C 34.078125 -35.460938 33.65625 -36.773438 32.8125 -38.015625 C 31.976562 -39.203125 30.769531 -40.191406 29.1875 -40.984375 C 27.59375 -41.722656 25.757812 -42.09375 23.6875 -42.09375 L 12.46875 -42.09375 L 12.625 0 L 6.3125 0 L 6.3125 -48.34375 L 23.6875 -48.34375 C 26.007812 -48.34375 28.1875 -47.96875 30.21875 -47.21875 C 32.25 -46.476562 34.03125 -45.414062 35.5625 -44.03125 C 37.050781 -42.695312 38.21875 -41.160156 39.0625 -39.421875 C 39.851562 -37.691406 40.25 -35.910156 40.25 -34.078125 C 40.25 -31.160156 39.359375 -28.535156 37.578125 -26.203125 C 36.085938 -24.222656 34.082031 -22.617188 31.5625 -21.390625 C 29.625 -20.691406 27.914062 -20.34375 26.4375 -20.34375 Z M 40.390625 0 "/></g></g></g><g fill="#000000" fill-opacity="1"><g transform="translate(327.644891, 204.605682)"><g><path d="M 6.3125 0 L 6.3125 -48.34375 L 20.9375 -48.34375 C 24.351562 -48.34375 27.546875 -47.722656 30.515625 -46.484375 C 33.484375 -45.191406 36.035156 -43.359375 38.171875 -40.984375 C 40.148438 -38.753906 41.679688 -36.207031 42.765625 -33.34375 C 43.804688 -30.46875 44.328125 -27.445312 44.328125 -24.28125 C 44.328125 -21.0625 43.804688 -18.015625 42.765625 -15.140625 C 41.679688 -12.222656 40.148438 -9.648438 38.171875 -7.421875 C 36.035156 -4.992188 33.484375 -3.164062 30.515625 -1.9375 C 27.546875 -0.644531 24.351562 0 20.9375 0 Z M 12.46875 -6.15625 L 20.9375 -6.15625 C 24.550781 -6.15625 27.671875 -7.023438 30.296875 -8.765625 C 32.816406 -10.441406 34.769531 -12.664062 36.15625 -15.4375 C 37.5 -18.164062 38.171875 -21.113281 38.171875 -24.28125 C 38.171875 -26.65625 37.769531 -28.929688 36.96875 -31.109375 C 36.175781 -33.234375 35.015625 -35.140625 33.484375 -36.828125 C 32.003906 -38.554688 30.195312 -39.867188 28.0625 -40.765625 C 25.882812 -41.648438 23.507812 -42.09375 20.9375 -42.09375 L 12.46875 -42.09375 Z M 12.46875 -6.15625 "/></g></g></g><g clip-path="url(#bc8209e966)"><path fill="#2e2e2e" d="M 92.167969 221.066406 L 187.492188 221.066406 L 187.492188 226.597656 L 92.167969 226.597656 Z M 92.167969 221.066406 " fill-opacity="1" fill-rule="nonzero"/></g><g fill="#000000" fill-opacity="1"><g transform="translate(199.139113, 226.586733)"><g><path d="M 3.28125 0.109375 C 2.707031 0.109375 2.195312 -0.0078125 1.75 -0.25 C 1.3125 -0.5 0.96875 -0.835938 0.71875 -1.265625 C 0.46875 -1.703125 0.34375 -2.203125 0.34375 -2.765625 C 0.34375 -3.328125 0.46875 -3.820312 0.71875 -4.25 C 0.96875 -4.6875 1.3125 -5.023438 1.75 -5.265625 C 2.195312 -5.515625 2.707031 -5.640625 3.28125 -5.640625 C 3.863281 -5.640625 4.375 -5.515625 4.8125 -5.265625 C 5.25 -5.023438 5.59375 -4.6875 5.84375 -4.25 C 6.101562 -3.820312 6.234375 -3.328125 6.234375 -2.765625 C 6.234375 -2.203125 6.101562 -1.703125 5.84375 -1.265625 C 5.59375 -0.835938 5.25 -0.5 4.8125 -0.25 C 4.375 -0.0078125 3.863281 0.109375 3.28125 0.109375 Z M 1.625 -2.765625 C 1.625 -2.429688 1.691406 -2.132812 1.828125 -1.875 C 1.972656 -1.625 2.171875 -1.425781 2.421875 -1.28125 C 2.671875 -1.144531 2.957031 -1.078125 3.28125 -1.078125 C 3.613281 -1.078125 3.90625 -1.144531 4.15625 -1.28125 C 4.40625 -1.425781 4.597656 -1.625 4.734375 -1.875 C 4.878906 -2.132812 4.953125 -2.429688 4.953125 -2.765625 C 4.953125 -3.097656 4.878906 -3.390625 4.734375 -3.640625 C 4.597656 -3.890625 4.40625 -4.082031 4.15625 -4.21875 C 3.90625 -4.363281 3.613281 -4.4375 3.28125 -4.4375 C 2.957031 -4.4375 2.671875 -4.363281 2.421875 -4.21875 C 2.171875 -4.082031 1.972656 -3.890625 1.828125 -3.640625 C 1.691406 -3.390625 1.625 -3.097656 1.625 -2.765625 Z M 1.625 -2.765625 "/></g></g></g><g fill="#000000" fill-opacity="1"><g transform="translate(207.626312, 226.586733)"><g><path d="M 0.65625 0 L 0.65625 -5.53125 L 1.734375 -5.53125 L 4.171875 -2.15625 L 4.171875 -5.53125 L 5.40625 -5.53125 L 5.40625 0 L 4.34375 0 L 1.90625 -3.390625 L 1.90625 0 Z M 0.65625 0 "/></g></g></g><g fill="#000000" fill-opacity="1"><g transform="translate(215.616644, 226.586733)"><g><path d="M 0.65625 0 L 0.65625 -5.53125 L 1.921875 -5.53125 L 1.921875 -1.171875 L 4.328125 -1.171875 L 4.328125 0 Z M 0.65625 0 "/></g></g></g><g fill="#000000" fill-opacity="1"><g transform="translate(222.076946, 226.586733)"><g><path d="M 0.65625 0 L 0.65625 -5.53125 L 1.921875 -5.53125 L 1.921875 0 Z M 0.65625 0 "/></g></g></g><g fill="#000000" fill-opacity="1"><g transform="translate(226.573443, 226.586733)"><g><path d="M 0.65625 0 L 0.65625 -5.53125 L 1.734375 -5.53125 L 4.171875 -2.15625 L 4.171875 -5.53125 L 5.40625 -5.53125 L 5.40625 0 L 4.34375 0 L 1.90625 -3.390625 L 1.90625 0 Z M 0.65625 0 "/></g></g></g><g fill="#000000" fill-opacity="1"><g transform="translate(234.563776, 226.586733)"><g><path d="M 0.65625 0 L 0.65625 -5.53125 L 4.296875 -5.53125 L 4.296875 -4.46875 L 1.90625 -4.46875 L 1.90625 -3.328125 L 4.078125 -3.328125 L 4.078125 -2.265625 L 1.90625 -2.265625 L 1.90625 -1.0625 L 4.375 -1.0625 L 4.375 0 Z M 0.65625 0 "/></g></g></g><g fill="#000000" fill-opacity="1"><g transform="translate(241.260686, 226.586733)"><g/></g></g><g fill="#000000" fill-opacity="1"><g transform="translate(245.031606, 226.586733)"><g><path d="M 2.59375 0.109375 C 2.125 0.109375 1.722656 0.0351562 1.390625 -0.109375 C 1.054688 -0.265625 0.796875 -0.484375 0.609375 -0.765625 C 0.429688 -1.046875 0.34375 -1.378906 0.34375 -1.765625 L 1.578125 -1.765625 C 1.578125 -1.492188 1.664062 -1.285156 1.84375 -1.140625 C 2.03125 -0.992188 2.273438 -0.921875 2.578125 -0.921875 C 2.835938 -0.921875 3.046875 -0.972656 3.203125 -1.078125 C 3.359375 -1.179688 3.4375 -1.320312 3.4375 -1.5 C 3.4375 -1.695312 3.34375 -1.851562 3.15625 -1.96875 C 2.96875 -2.09375 2.679688 -2.195312 2.296875 -2.28125 C 1.648438 -2.425781 1.171875 -2.632812 0.859375 -2.90625 C 0.546875 -3.1875 0.390625 -3.550781 0.390625 -4 C 0.390625 -4.507812 0.570312 -4.910156 0.9375 -5.203125 C 1.3125 -5.492188 1.816406 -5.640625 2.453125 -5.640625 C 2.890625 -5.640625 3.269531 -5.5625 3.59375 -5.40625 C 3.914062 -5.257812 4.160156 -5.050781 4.328125 -4.78125 C 4.503906 -4.507812 4.59375 -4.1875 4.59375 -3.8125 L 3.390625 -3.8125 C 3.390625 -4.0625 3.304688 -4.253906 3.140625 -4.390625 C 2.984375 -4.535156 2.757812 -4.609375 2.46875 -4.609375 C 2.207031 -4.609375 2 -4.554688 1.84375 -4.453125 C 1.695312 -4.347656 1.625 -4.207031 1.625 -4.03125 C 1.625 -3.851562 1.707031 -3.707031 1.875 -3.59375 C 2.039062 -3.476562 2.332031 -3.375 2.75 -3.28125 C 3.4375 -3.113281 3.929688 -2.890625 4.234375 -2.609375 C 4.546875 -2.335938 4.703125 -1.984375 4.703125 -1.546875 C 4.703125 -1.023438 4.515625 -0.617188 4.140625 -0.328125 C 3.765625 -0.0351562 3.25 0.109375 2.59375 0.109375 Z M 2.59375 0.109375 "/></g></g></g><g fill="#000000" fill-opacity="1"><g transform="translate(252.004548, 226.586733)"><g><path d="M 1.984375 0 L 1.984375 -4.34375 L 0.234375 -4.34375 L 0.234375 -5.53125 L 5 -5.53125 L 5 -4.34375 L 3.25 -4.34375 L 3.25 0 Z M 1.984375 0 "/></g></g></g><g fill="#000000" fill-opacity="1"><g transform="translate(259.151005, 226.586733)"><g><path d="M 3.28125 0.109375 C 2.707031 0.109375 2.195312 -0.0078125 1.75 -0.25 C 1.3125 -0.5 0.96875 -0.835938 0.71875 -1.265625 C 0.46875 -1.703125 0.34375 -2.203125 0.34375 -2.765625 C 0.34375 -3.328125 0.46875 -3.820312 0.71875 -4.25 C 0.96875 -4.6875 1.3125 -5.023438 1.75 -5.265625 C 2.195312 -5.515625 2.707031 -5.640625 3.28125 -5.640625 C 3.863281 -5.640625 4.375 -5.515625 4.8125 -5.265625 C 5.25 -5.023438 5.59375 -4.6875 5.84375 -4.25 C 6.101562 -3.820312 6.234375 -3.328125 6.234375 -2.765625 C 6.234375 -2.203125 6.101562 -1.703125 5.84375 -1.265625 C 5.59375 -0.835938 5.25 -0.5 4.8125 -0.25 C 4.375 -0.0078125 3.863281 0.109375 3.28125 0.109375 Z M 1.625 -2.765625 C 1.625 -2.429688 1.691406 -2.132812 1.828125 -1.875 C 1.972656 -1.625 2.171875 -1.425781 2.421875 -1.28125 C 2.671875 -1.144531 2.957031 -1.078125 3.28125 -1.078125 C 3.613281 -1.078125 3.90625 -1.144531 4.15625 -1.28125 C 4.40625 -1.425781 4.597656 -1.625 4.734375 -1.875 C 4.878906 -2.132812 4.953125 -2.429688 4.953125 -2.765625 C 4.953125 -3.097656 4.878906 -3.390625 4.734375 -3.640625 C 4.597656 -3.890625 4.40625 -4.082031 4.15625 -4.21875 C 3.90625 -4.363281 3.613281 -4.4375 3.28125 -4.4375 C 2.957031 -4.4375 2.671875 -4.363281 2.421875 -4.21875 C 2.171875 -4.082031 1.972656 -3.890625 1.828125 -3.640625 C 1.691406 -3.390625 1.625 -3.097656 1.625 -2.765625 Z M 1.625 -2.765625 "/></g></g></g><g fill="#000000" fill-opacity="1"><g transform="translate(267.638206, 226.586733)"><g><path d="M 0.65625 0 L 0.65625 -5.53125 L 3.015625 -5.53125 C 3.441406 -5.53125 3.804688 -5.453125 4.109375 -5.296875 C 4.421875 -5.140625 4.660156 -4.921875 4.828125 -4.640625 C 5.003906 -4.359375 5.09375 -4.019531 5.09375 -3.625 C 5.09375 -3.21875 5 -2.867188 4.8125 -2.578125 C 4.625 -2.285156 4.367188 -2.066406 4.046875 -1.921875 L 5.1875 0 L 3.734375 0 L 2.75 -1.71875 L 1.921875 -1.71875 L 1.921875 0 Z M 1.90625 -2.78125 L 2.859375 -2.78125 C 3.171875 -2.78125 3.40625 -2.851562 3.5625 -3 C 3.726562 -3.144531 3.8125 -3.347656 3.8125 -3.609375 C 3.8125 -3.878906 3.726562 -4.085938 3.5625 -4.234375 C 3.40625 -4.378906 3.171875 -4.453125 2.859375 -4.453125 L 1.90625 -4.453125 Z M 1.90625 -2.78125 "/></g></g></g><g fill="#000000" fill-opacity="1"><g transform="translate(275.108016, 226.586733)"><g><path d="M 0.65625 0 L 0.65625 -5.53125 L 4.296875 -5.53125 L 4.296875 -4.46875 L 1.90625 -4.46875 L 1.90625 -3.328125 L 4.078125 -3.328125 L 4.078125 -2.265625 L 1.90625 -2.265625 L 1.90625 -1.0625 L 4.375 -1.0625 L 4.375 0 Z M 0.65625 0 "/></g></g></g><g fill="#000000" fill-opacity="1"><g transform="translate(130.925415, 239.782499)"><g><path d="M 0.21875 0 L 1.15625 -4.71875 L 4.25 -4.71875 L 4.078125 -3.8125 L 2.0625 -3.8125 L 1.859375 -2.828125 L 3.703125 -2.828125 L 3.515625 -1.9375 L 1.6875 -1.9375 L 1.484375 -0.90625 L 3.5625 -0.90625 L 3.390625 0 Z M 0.21875 0 "/></g></g></g><g fill="#000000" fill-opacity="1"><g transform="translate(135.008472, 239.782499)"><g><path d="M 1.90625 0.09375 C 1.507812 0.09375 1.175781 0.03125 0.90625 -0.09375 C 0.632812 -0.226562 0.441406 -0.410156 0.328125 -0.640625 C 0.210938 -0.878906 0.1875 -1.164062 0.25 -1.5 L 1.28125 -1.5 C 1.25 -1.28125 1.289062 -1.101562 1.40625 -0.96875 C 1.53125 -0.84375 1.722656 -0.78125 1.984375 -0.78125 C 2.222656 -0.78125 2.414062 -0.828125 2.5625 -0.921875 C 2.707031 -1.015625 2.796875 -1.132812 2.828125 -1.28125 C 2.859375 -1.445312 2.816406 -1.582031 2.703125 -1.6875 C 2.585938 -1.800781 2.367188 -1.894531 2.046875 -1.96875 C 1.523438 -2.070312 1.140625 -2.253906 0.890625 -2.515625 C 0.648438 -2.773438 0.578125 -3.113281 0.671875 -3.53125 C 0.742188 -3.914062 0.945312 -4.222656 1.28125 -4.453125 C 1.613281 -4.691406 2.050781 -4.8125 2.59375 -4.8125 C 3.175781 -4.8125 3.609375 -4.671875 3.890625 -4.390625 C 4.179688 -4.109375 4.289062 -3.734375 4.21875 -3.265625 L 3.1875 -3.265625 C 3.21875 -3.460938 3.179688 -3.625 3.078125 -3.75 C 2.972656 -3.875 2.785156 -3.9375 2.515625 -3.9375 C 2.296875 -3.9375 2.113281 -3.890625 1.96875 -3.796875 C 1.832031 -3.710938 1.75 -3.601562 1.71875 -3.46875 C 1.6875 -3.289062 1.726562 -3.148438 1.84375 -3.046875 C 1.96875 -2.941406 2.195312 -2.851562 2.53125 -2.78125 C 3.050781 -2.65625 3.425781 -2.460938 3.65625 -2.203125 C 3.894531 -1.941406 3.976562 -1.613281 3.90625 -1.21875 C 3.820312 -0.8125 3.609375 -0.488281 3.265625 -0.25 C 2.921875 -0.0195312 2.46875 0.09375 1.90625 0.09375 Z M 1.90625 0.09375 "/></g></g></g><g fill="#000000" fill-opacity="1"><g transform="translate(139.31351, 239.782499)"><g><path d="M 1.328125 0 L 2.078125 -3.703125 L 0.59375 -3.703125 L 0.796875 -4.71875 L 4.84375 -4.71875 L 4.640625 -3.703125 L 3.171875 -3.703125 L 2.421875 0 Z M 1.328125 0 "/></g></g></g><g fill="#000000" fill-opacity="1"><g transform="translate(143.773261, 239.782499)"><g><path d="M 0.21875 0 L 1.15625 -4.71875 L 2.984375 -4.71875 C 3.472656 -4.71875 3.882812 -4.609375 4.21875 -4.390625 C 4.5625 -4.171875 4.800781 -3.875 4.9375 -3.5 C 5.082031 -3.132812 5.109375 -2.710938 5.015625 -2.234375 C 4.921875 -1.773438 4.738281 -1.378906 4.46875 -1.046875 C 4.207031 -0.710938 3.875 -0.453125 3.46875 -0.265625 C 3.0625 -0.0859375 2.601562 0 2.09375 0 Z M 1.5 -0.984375 L 2.21875 -0.984375 C 2.5 -0.984375 2.757812 -1.039062 3 -1.15625 C 3.238281 -1.269531 3.4375 -1.429688 3.59375 -1.640625 C 3.757812 -1.847656 3.867188 -2.09375 3.921875 -2.375 C 4.003906 -2.789062 3.945312 -3.117188 3.75 -3.359375 C 3.550781 -3.609375 3.238281 -3.734375 2.8125 -3.734375 L 2.046875 -3.734375 Z M 1.5 -0.984375 "/></g></g></g><g fill="#000000" fill-opacity="1"><g transform="translate(131.077759, 245.782498)"><g><path d="M 0 0 L 0.140625 -0.75 L 2.40625 -2.421875 C 2.613281 -2.578125 2.769531 -2.71875 2.875 -2.84375 C 2.976562 -2.976562 3.039062 -3.117188 3.0625 -3.265625 C 3.101562 -3.453125 3.070312 -3.601562 2.96875 -3.71875 C 2.875 -3.832031 2.722656 -3.890625 2.515625 -3.890625 C 2.296875 -3.890625 2.109375 -3.820312 1.953125 -3.6875 C 1.804688 -3.550781 1.707031 -3.363281 1.65625 -3.125 L 0.65625 -3.125 C 0.769531 -3.664062 0.992188 -4.082031 1.328125 -4.375 C 1.671875 -4.664062 2.097656 -4.8125 2.609375 -4.8125 C 2.960938 -4.8125 3.257812 -4.738281 3.5 -4.59375 C 3.75 -4.457031 3.925781 -4.269531 4.03125 -4.03125 C 4.132812 -3.800781 4.15625 -3.53125 4.09375 -3.21875 C 4.03125 -2.945312 3.910156 -2.6875 3.734375 -2.4375 C 3.554688 -2.195312 3.285156 -1.953125 2.921875 -1.703125 L 1.921875 -0.9375 L 3.71875 -0.9375 L 3.53125 0 Z M 0 0 "/></g></g></g><g fill="#000000" fill-opacity="1"><g transform="translate(135.416431, 245.782498)"><g><path d="M 2.078125 0.09375 C 1.648438 0.09375 1.296875 -0.00390625 1.015625 -0.203125 C 0.742188 -0.410156 0.554688 -0.703125 0.453125 -1.078125 C 0.359375 -1.460938 0.363281 -1.914062 0.46875 -2.4375 C 0.613281 -3.1875 0.894531 -3.769531 1.3125 -4.1875 C 1.738281 -4.601562 2.257812 -4.8125 2.875 -4.8125 C 3.300781 -4.8125 3.65625 -4.707031 3.9375 -4.5 C 4.21875 -4.300781 4.40625 -4.007812 4.5 -3.625 C 4.601562 -3.25 4.601562 -2.800781 4.5 -2.28125 C 4.351562 -1.53125 4.066406 -0.945312 3.640625 -0.53125 C 3.222656 -0.113281 2.703125 0.09375 2.078125 0.09375 Z M 1.5 -2.34375 C 1.40625 -1.863281 1.414062 -1.492188 1.53125 -1.234375 C 1.644531 -0.984375 1.851562 -0.859375 2.15625 -0.859375 C 2.476562 -0.859375 2.75 -0.988281 2.96875 -1.25 C 3.195312 -1.519531 3.363281 -1.894531 3.46875 -2.375 C 3.5625 -2.84375 3.550781 -3.207031 3.4375 -3.46875 C 3.320312 -3.726562 3.109375 -3.859375 2.796875 -3.859375 C 2.484375 -3.859375 2.210938 -3.722656 1.984375 -3.453125 C 1.765625 -3.179688 1.601562 -2.8125 1.5 -2.34375 Z M 1.5 -2.34375 "/></g></g></g><g fill="#000000" fill-opacity="1"><g transform="translate(140.138515, 245.782498)"><g><path d="M 0 0 L 0.140625 -0.75 L 2.40625 -2.421875 C 2.613281 -2.578125 2.769531 -2.71875 2.875 -2.84375 C 2.976562 -2.976562 3.039062 -3.117188 3.0625 -3.265625 C 3.101562 -3.453125 3.070312 -3.601562 2.96875 -3.71875 C 2.875 -3.832031 2.722656 -3.890625 2.515625 -3.890625 C 2.296875 -3.890625 2.109375 -3.820312 1.953125 -3.6875 C 1.804688 -3.550781 1.707031 -3.363281 1.65625 -3.125 L 0.65625 -3.125 C 0.769531 -3.664062 0.992188 -4.082031 1.328125 -4.375 C 1.671875 -4.664062 2.097656 -4.8125 2.609375 -4.8125 C 2.960938 -4.8125 3.257812 -4.738281 3.5 -4.59375 C 3.75 -4.457031 3.925781 -4.269531 4.03125 -4.03125 C 4.132812 -3.800781 4.15625 -3.53125 4.09375 -3.21875 C 4.03125 -2.945312 3.910156 -2.6875 3.734375 -2.4375 C 3.554688 -2.195312 3.285156 -1.953125 2.921875 -1.703125 L 1.921875 -0.9375 L 3.71875 -0.9375 L 3.53125 0 Z M 0 0 "/></g></g></g><g fill="#000000" fill-opacity="1"><g transform="translate(144.477187, 245.782498)"><g><path d="M 0 -0.859375 L 0.140625 -1.609375 L 2.296875 -4.71875 L 3.46875 -4.71875 L 1.4375 -1.765625 L 2.59375 -1.765625 L 3.015625 -3.078125 L 3.859375 -3.078125 L 3.609375 -1.796875 L 4.1875 -1.796875 L 4 -0.859375 L 3.421875 -0.859375 L 3.25 0 L 2.1875 0 L 2.34375 -0.859375 Z M 0 -0.859375 "/></g></g></g></svg>