<svg xmlns="http://www.w3.org/2000/svg" xmlns:xlink="http://www.w3.org/1999/xlink" width="500" zoomAndPan="magnify" viewBox="0 0 375 374.999991" height="500" preserveAspectRatio="xMidYMid meet" version="1.0"><defs><g/><clipPath id="4aa7e5ed9c"><path d="M 92.167969 221.066406 L 187.5 221.066406 L 187.5 226.597656 L 92.167969 226.597656 Z M 92.167969 221.066406 " clip-rule="nonzero"/></clipPath></defs><g fill="#2e2e2e" fill-opacity="1"><g transform="translate(7.40221, 209.877598)"><g><path d="M 9.09375 -61 L 16.953125 -61 L 16.953125 0 L 9.09375 0 Z M 9.09375 -61 "/></g></g></g><g fill="#2e2e2e" fill-opacity="1"><g transform="translate(25.299155, 209.877598)"><g><path d="M 63.15625 -38.984375 L 39.640625 -8.4375 L 16.015625 -39.078125 L 16.015625 0 L 8.0625 0 L 8.0625 -61.9375 L 39.640625 -21.265625 L 70.9375 -61.9375 L 70.9375 0 L 63.15625 0 Z M 63.15625 -38.984375 "/></g></g></g><g fill="#2e2e2e" fill-opacity="1"><g transform="translate(96.138376, 209.877598)"><g><path d="M 7.96875 0 L 7.96875 -61 L 30.265625 -61 C 32.953125 -61 35.546875 -60.5625 38.046875 -59.6875 C 40.484375 -58.8125 42.640625 -57.5625 44.515625 -55.9375 C 46.503906 -54.25 48.0625 -52.28125 49.1875 -50.03125 C 50.25 -47.789062 50.78125 -45.453125 50.78125 -43.015625 C 50.78125 -40.515625 50.25 -38.171875 49.1875 -35.984375 C 48.0625 -33.734375 46.503906 -31.734375 44.515625 -29.984375 C 42.640625 -28.359375 40.484375 -27.109375 38.046875 -26.234375 C 35.546875 -25.296875 32.953125 -24.828125 30.265625 -24.828125 L 15.921875 -24.828125 L 15.921875 0 Z M 15.921875 -32.703125 L 30.265625 -32.703125 C 32.578125 -32.703125 34.703125 -33.171875 36.640625 -34.109375 C 38.578125 -35.046875 40.140625 -36.296875 41.328125 -37.859375 C 42.453125 -39.421875 43.015625 -41.140625 43.015625 -43.015625 C 43.015625 -44.828125 42.453125 -46.507812 41.328125 -48.0625 C 40.140625 -49.625 38.578125 -50.875 36.640625 -51.8125 C 34.640625 -52.6875 32.515625 -53.125 30.265625 -53.125 L 15.734375 -53.125 Z M 15.921875 -32.703125 "/></g></g></g><g fill="#2e2e2e" fill-opacity="1"><g transform="translate(144.114032, 209.877598)"><g><path d="M 7.96875 -61 L 46.9375 -61 L 46.9375 -53.125 L 15.734375 -53.125 L 15.734375 -34.484375 L 39.640625 -34.484375 L 39.640625 -26.609375 L 15.734375 -26.609375 L 15.734375 -7.78125 L 46.9375 -7.78125 L 46.9375 0 L 7.96875 0 Z M 7.96875 -61 "/></g></g></g><g fill="#2e2e2e" fill-opacity="1"><g transform="translate(190.871543, 209.877598)"><g><path d="M 50.96875 0 L 41.140625 0 L 17.984375 -32.703125 L 26.796875 -32.703125 C 29.046875 -32.703125 31.046875 -32.859375 32.796875 -33.171875 C 34.484375 -33.421875 35.796875 -33.734375 36.734375 -34.109375 C 38.671875 -34.984375 40.203125 -36.265625 41.328125 -37.953125 C 42.453125 -39.578125 43.015625 -41.265625 43.015625 -43.015625 C 43.015625 -44.765625 42.484375 -46.414062 41.421875 -47.96875 C 40.359375 -49.46875 38.828125 -50.71875 36.828125 -51.71875 C 34.828125 -52.65625 32.515625 -53.125 29.890625 -53.125 L 15.734375 -53.125 L 15.921875 0 L 7.96875 0 L 7.96875 -61 L 29.890625 -61 C 32.828125 -61 35.578125 -60.53125 38.140625 -59.59375 C 40.703125 -58.65625 42.953125 -57.3125 44.890625 -55.5625 C 46.753906 -53.875 48.21875 -51.9375 49.28125 -49.75 C 50.28125 -47.570312 50.78125 -45.328125 50.78125 -43.015625 C 50.78125 -39.328125 49.65625 -36.015625 47.40625 -33.078125 C 45.539062 -30.578125 43.015625 -28.546875 39.828125 -26.984375 C 37.390625 -26.109375 35.234375 -25.671875 33.359375 -25.671875 Z M 50.96875 0 "/></g></g></g><g fill="#2e2e2e" fill-opacity="1"><g transform="translate(239.503117, 209.877598)"><g><path d="M 9.09375 -61 L 16.953125 -61 L 16.953125 0 L 9.09375 0 Z M 9.09375 -61 "/></g></g></g><g fill="#2e2e2e" fill-opacity="1"><g transform="translate(257.400073, 209.877598)"><g><path d="M 46.390625 -11.8125 L 18.453125 -11.8125 L 13.03125 0 L 4.40625 0 L 32.984375 -61.65625 L 60.0625 0 L 51.53125 0 Z M 43.015625 -19.578125 L 32.703125 -42.734375 L 22.015625 -19.578125 Z M 43.015625 -19.578125 "/></g></g></g><g fill="#2e2e2e" fill-opacity="1"><g transform="translate(313.621596, 209.877598)"><g><path d="M 7.96875 -61 L 15.921875 -61 L 15.921875 -7.78125 L 46.9375 -7.78125 L 46.9375 0 L 7.96875 0 Z M 7.96875 -61 "/></g></g></g><g clip-path="url(#4aa7e5ed9c)"><path fill="#2e2e2e" d="M 92.167969 221.066406 L 187.492188 221.066406 L 187.492188 226.597656 L 92.167969 226.597656 Z M 92.167969 221.066406 " fill-opacity="1" fill-rule="nonzero"/></g><g fill="#2e2e2e" fill-opacity="1"><g transform="translate(198.350833, 226.635395)"><g><path d="M 3.34375 0.109375 C 2.757812 0.109375 2.238281 -0.015625 1.78125 -0.265625 C 1.332031 -0.515625 0.976562 -0.859375 0.71875 -1.296875 C 0.46875 -1.734375 0.34375 -2.238281 0.34375 -2.8125 C 0.34375 -3.382812 0.46875 -3.890625 0.71875 -4.328125 C 0.976562 -4.773438 1.332031 -5.125 1.78125 -5.375 C 2.238281 -5.625 2.757812 -5.75 3.34375 -5.75 C 3.9375 -5.75 4.457031 -5.625 4.90625 -5.375 C 5.351562 -5.125 5.707031 -4.773438 5.96875 -4.328125 C 6.226562 -3.890625 6.359375 -3.382812 6.359375 -2.8125 C 6.359375 -2.238281 6.226562 -1.734375 5.96875 -1.296875 C 5.707031 -0.859375 5.351562 -0.515625 4.90625 -0.265625 C 4.457031 -0.015625 3.9375 0.109375 3.34375 0.109375 Z M 1.65625 -2.8125 C 1.65625 -2.476562 1.722656 -2.179688 1.859375 -1.921875 C 2.003906 -1.660156 2.203125 -1.457031 2.453125 -1.3125 C 2.710938 -1.175781 3.007812 -1.109375 3.34375 -1.109375 C 3.6875 -1.109375 3.984375 -1.175781 4.234375 -1.3125 C 4.492188 -1.457031 4.691406 -1.660156 4.828125 -1.921875 C 4.972656 -2.179688 5.046875 -2.476562 5.046875 -2.8125 C 5.046875 -3.15625 4.972656 -3.453125 4.828125 -3.703125 C 4.691406 -3.960938 4.492188 -4.164062 4.234375 -4.3125 C 3.984375 -4.457031 3.6875 -4.53125 3.34375 -4.53125 C 3.007812 -4.53125 2.710938 -4.457031 2.453125 -4.3125 C 2.203125 -4.164062 2.003906 -3.960938 1.859375 -3.703125 C 1.722656 -3.453125 1.65625 -3.15625 1.65625 -2.8125 Z M 1.65625 -2.8125 "/></g></g></g><g fill="#2e2e2e" fill-opacity="1"><g transform="translate(207.003828, 226.635395)"><g><path d="M 0.671875 0 L 0.671875 -5.625 L 1.765625 -5.625 L 4.25 -2.203125 L 4.25 -5.625 L 5.515625 -5.625 L 5.515625 0 L 4.4375 0 L 1.953125 -3.453125 L 1.953125 0 Z M 0.671875 0 "/></g></g></g><g fill="#2e2e2e" fill-opacity="1"><g transform="translate(215.150194, 226.635395)"><g><path d="M 0.671875 0 L 0.671875 -5.625 L 1.953125 -5.625 L 1.953125 -1.203125 L 4.421875 -1.203125 L 4.421875 0 Z M 0.671875 0 "/></g></g></g><g fill="#2e2e2e" fill-opacity="1"><g transform="translate(221.736442, 226.635395)"><g><path d="M 0.671875 0 L 0.671875 -5.625 L 1.953125 -5.625 L 1.953125 0 Z M 0.671875 0 "/></g></g></g><g fill="#2e2e2e" fill-opacity="1"><g transform="translate(226.320273, 226.635395)"><g><path d="M 0.671875 0 L 0.671875 -5.625 L 1.765625 -5.625 L 4.25 -2.203125 L 4.25 -5.625 L 5.515625 -5.625 L 5.515625 0 L 4.4375 0 L 1.953125 -3.453125 L 1.953125 0 Z M 0.671875 0 "/></g></g></g><g fill="#2e2e2e" fill-opacity="1"><g transform="translate(234.466638, 226.635395)"><g><path d="M 0.671875 0 L 0.671875 -5.625 L 4.375 -5.625 L 4.375 -4.546875 L 1.953125 -4.546875 L 1.953125 -3.390625 L 4.15625 -3.390625 L 4.15625 -2.3125 L 1.953125 -2.3125 L 1.953125 -1.09375 L 4.46875 -1.09375 L 4.46875 0 Z M 0.671875 0 "/></g></g></g><g fill="#2e2e2e" fill-opacity="1"><g transform="translate(241.29414, 226.635395)"><g/></g></g><g fill="#2e2e2e" fill-opacity="1"><g transform="translate(245.138125, 226.635395)"><g><path d="M 2.640625 0.109375 C 2.171875 0.109375 1.765625 0.03125 1.421875 -0.125 C 1.078125 -0.28125 0.8125 -0.5 0.625 -0.78125 C 0.445312 -1.070312 0.359375 -1.410156 0.359375 -1.796875 L 1.609375 -1.796875 C 1.609375 -1.523438 1.703125 -1.3125 1.890625 -1.15625 C 2.078125 -1.007812 2.320312 -0.9375 2.625 -0.9375 C 2.894531 -0.9375 3.109375 -0.988281 3.265625 -1.09375 C 3.421875 -1.195312 3.5 -1.34375 3.5 -1.53125 C 3.5 -1.726562 3.40625 -1.890625 3.21875 -2.015625 C 3.03125 -2.140625 2.738281 -2.242188 2.34375 -2.328125 C 1.6875 -2.472656 1.195312 -2.6875 0.875 -2.96875 C 0.5625 -3.25 0.40625 -3.617188 0.40625 -4.078125 C 0.40625 -4.597656 0.59375 -5.003906 0.96875 -5.296875 C 1.34375 -5.597656 1.851562 -5.75 2.5 -5.75 C 2.945312 -5.75 3.332031 -5.671875 3.65625 -5.515625 C 3.988281 -5.359375 4.242188 -5.140625 4.421875 -4.859375 C 4.597656 -4.585938 4.6875 -4.265625 4.6875 -3.890625 L 3.453125 -3.890625 C 3.453125 -4.140625 3.367188 -4.335938 3.203125 -4.484375 C 3.046875 -4.628906 2.816406 -4.703125 2.515625 -4.703125 C 2.242188 -4.703125 2.03125 -4.648438 1.875 -4.546875 C 1.726562 -4.441406 1.65625 -4.296875 1.65625 -4.109375 C 1.65625 -3.929688 1.738281 -3.785156 1.90625 -3.671875 C 2.082031 -3.554688 2.382812 -3.445312 2.8125 -3.34375 C 3.507812 -3.175781 4.015625 -2.953125 4.328125 -2.671875 C 4.640625 -2.390625 4.796875 -2.023438 4.796875 -1.578125 C 4.796875 -1.046875 4.601562 -0.628906 4.21875 -0.328125 C 3.832031 -0.0351562 3.304688 0.109375 2.640625 0.109375 Z M 2.640625 0.109375 "/></g></g></g><g fill="#2e2e2e" fill-opacity="1"><g transform="translate(252.247088, 226.635395)"><g><path d="M 2.03125 0 L 2.03125 -4.4375 L 0.234375 -4.4375 L 0.234375 -5.625 L 5.09375 -5.625 L 5.09375 -4.4375 L 3.3125 -4.4375 L 3.3125 0 Z M 2.03125 0 "/></g></g></g><g fill="#2e2e2e" fill-opacity="1"><g transform="translate(259.532976, 226.635395)"><g><path d="M 3.34375 0.109375 C 2.757812 0.109375 2.238281 -0.015625 1.78125 -0.265625 C 1.332031 -0.515625 0.976562 -0.859375 0.71875 -1.296875 C 0.46875 -1.734375 0.34375 -2.238281 0.34375 -2.8125 C 0.34375 -3.382812 0.46875 -3.890625 0.71875 -4.328125 C 0.976562 -4.773438 1.332031 -5.125 1.78125 -5.375 C 2.238281 -5.625 2.757812 -5.75 3.34375 -5.75 C 3.9375 -5.75 4.457031 -5.625 4.90625 -5.375 C 5.351562 -5.125 5.707031 -4.773438 5.96875 -4.328125 C 6.226562 -3.890625 6.359375 -3.382812 6.359375 -2.8125 C 6.359375 -2.238281 6.226562 -1.734375 5.96875 -1.296875 C 5.707031 -0.859375 5.351562 -0.515625 4.90625 -0.265625 C 4.457031 -0.015625 3.9375 0.109375 3.34375 0.109375 Z M 1.65625 -2.8125 C 1.65625 -2.476562 1.722656 -2.179688 1.859375 -1.921875 C 2.003906 -1.660156 2.203125 -1.457031 2.453125 -1.3125 C 2.710938 -1.175781 3.007812 -1.109375 3.34375 -1.109375 C 3.6875 -1.109375 3.984375 -1.175781 4.234375 -1.3125 C 4.492188 -1.457031 4.691406 -1.660156 4.828125 -1.921875 C 4.972656 -2.179688 5.046875 -2.476562 5.046875 -2.8125 C 5.046875 -3.15625 4.972656 -3.453125 4.828125 -3.703125 C 4.691406 -3.960938 4.492188 -4.164062 4.234375 -4.3125 C 3.984375 -4.457031 3.6875 -4.53125 3.34375 -4.53125 C 3.007812 -4.53125 2.710938 -4.457031 2.453125 -4.3125 C 2.203125 -4.164062 2.003906 -3.960938 1.859375 -3.703125 C 1.722656 -3.453125 1.65625 -3.15625 1.65625 -2.8125 Z M 1.65625 -2.8125 "/></g></g></g><g fill="#2e2e2e" fill-opacity="1"><g transform="translate(268.185971, 226.635395)"><g><path d="M 0.671875 0 L 0.671875 -5.625 L 3.078125 -5.625 C 3.503906 -5.625 3.875 -5.546875 4.1875 -5.390625 C 4.507812 -5.242188 4.753906 -5.023438 4.921875 -4.734375 C 5.097656 -4.441406 5.1875 -4.09375 5.1875 -3.6875 C 5.1875 -3.28125 5.09375 -2.925781 4.90625 -2.625 C 4.71875 -2.332031 4.457031 -2.109375 4.125 -1.953125 L 5.28125 0 L 3.8125 0 L 2.796875 -1.75 L 1.953125 -1.75 L 1.953125 0 Z M 1.9375 -2.828125 L 2.90625 -2.828125 C 3.226562 -2.828125 3.472656 -2.898438 3.640625 -3.046875 C 3.804688 -3.203125 3.890625 -3.414062 3.890625 -3.6875 C 3.890625 -3.957031 3.804688 -4.164062 3.640625 -4.3125 C 3.472656 -4.457031 3.226562 -4.53125 2.90625 -4.53125 L 1.9375 -4.53125 Z M 1.9375 -2.828125 "/></g></g></g><g fill="#2e2e2e" fill-opacity="1"><g transform="translate(275.801574, 226.635395)"><g><path d="M 0.671875 0 L 0.671875 -5.625 L 4.375 -5.625 L 4.375 -4.546875 L 1.953125 -4.546875 L 1.953125 -3.390625 L 4.15625 -3.390625 L 4.15625 -2.3125 L 1.953125 -2.3125 L 1.953125 -1.09375 L 4.46875 -1.09375 L 4.46875 0 Z M 0.671875 0 "/></g></g></g><g fill="#2e2e2e" fill-opacity="1"><g transform="translate(130.505577, 240.599272)"><g><path d="M 0.21875 0 L 1.21875 -4.9375 L 4.453125 -4.9375 L 4.265625 -3.984375 L 2.15625 -3.984375 L 1.953125 -2.96875 L 3.875 -2.96875 L 3.6875 -2.03125 L 1.765625 -2.03125 L 1.546875 -0.953125 L 3.734375 -0.953125 L 3.546875 0 Z M 0.21875 0 "/></g></g></g><g fill="#2e2e2e" fill-opacity="1"><g transform="translate(134.779973, 240.599272)"><g><path d="M 2 0.09375 C 1.570312 0.09375 1.21875 0.03125 0.9375 -0.09375 C 0.65625 -0.226562 0.453125 -0.421875 0.328125 -0.671875 C 0.210938 -0.921875 0.191406 -1.21875 0.265625 -1.5625 L 1.34375 -1.5625 C 1.3125 -1.332031 1.351562 -1.148438 1.46875 -1.015625 C 1.59375 -0.890625 1.796875 -0.828125 2.078125 -0.828125 C 2.316406 -0.828125 2.515625 -0.875 2.671875 -0.96875 C 2.828125 -1.0625 2.921875 -1.1875 2.953125 -1.34375 C 2.992188 -1.519531 2.953125 -1.664062 2.828125 -1.78125 C 2.703125 -1.894531 2.472656 -1.988281 2.140625 -2.0625 C 1.597656 -2.175781 1.195312 -2.363281 0.9375 -2.625 C 0.6875 -2.894531 0.609375 -3.253906 0.703125 -3.703125 C 0.773438 -4.109375 0.988281 -4.429688 1.34375 -4.671875 C 1.695312 -4.910156 2.15625 -5.03125 2.71875 -5.03125 C 3.320312 -5.03125 3.773438 -4.882812 4.078125 -4.59375 C 4.378906 -4.300781 4.492188 -3.910156 4.421875 -3.421875 L 3.328125 -3.421875 C 3.367188 -3.628906 3.332031 -3.796875 3.21875 -3.921875 C 3.101562 -4.054688 2.910156 -4.125 2.640625 -4.125 C 2.410156 -4.125 2.21875 -4.078125 2.0625 -3.984375 C 1.914062 -3.890625 1.828125 -3.769531 1.796875 -3.625 C 1.765625 -3.4375 1.8125 -3.285156 1.9375 -3.171875 C 2.0625 -3.066406 2.296875 -2.976562 2.640625 -2.90625 C 3.191406 -2.78125 3.585938 -2.578125 3.828125 -2.296875 C 4.078125 -2.023438 4.160156 -1.679688 4.078125 -1.265625 C 3.992188 -0.847656 3.769531 -0.515625 3.40625 -0.265625 C 3.050781 -0.0234375 2.582031 0.09375 2 0.09375 Z M 2 0.09375 "/></g></g></g><g fill="#2e2e2e" fill-opacity="1"><g transform="translate(139.286745, 240.599272)"><g><path d="M 1.390625 0 L 2.171875 -3.890625 L 0.625 -3.890625 L 0.828125 -4.9375 L 5.078125 -4.9375 L 4.859375 -3.890625 L 3.3125 -3.890625 L 2.53125 0 Z M 1.390625 0 "/></g></g></g><g fill="#2e2e2e" fill-opacity="1"><g transform="translate(143.955479, 240.599272)"><g><path d="M 0.21875 0 L 1.21875 -4.9375 L 3.125 -4.9375 C 3.632812 -4.9375 4.066406 -4.820312 4.421875 -4.59375 C 4.773438 -4.363281 5.023438 -4.054688 5.171875 -3.671875 C 5.316406 -3.285156 5.34375 -2.835938 5.25 -2.328125 C 5.15625 -1.859375 4.96875 -1.445312 4.6875 -1.09375 C 4.40625 -0.75 4.050781 -0.476562 3.625 -0.28125 C 3.195312 -0.09375 2.722656 0 2.203125 0 Z M 1.5625 -1.03125 L 2.328125 -1.03125 C 2.617188 -1.03125 2.890625 -1.085938 3.140625 -1.203125 C 3.390625 -1.328125 3.597656 -1.5 3.765625 -1.71875 C 3.941406 -1.9375 4.054688 -2.191406 4.109375 -2.484375 C 4.203125 -2.921875 4.140625 -3.265625 3.921875 -3.515625 C 3.710938 -3.773438 3.390625 -3.90625 2.953125 -3.90625 L 2.140625 -3.90625 Z M 1.5625 -1.03125 "/></g></g></g><g fill="#2e2e2e" fill-opacity="1"><g transform="translate(130.66145, 247.054238)"><g><path d="M 0 0 L 0.140625 -0.796875 L 2.515625 -2.53125 C 2.734375 -2.695312 2.894531 -2.847656 3 -2.984375 C 3.113281 -3.117188 3.179688 -3.257812 3.203125 -3.40625 C 3.242188 -3.613281 3.210938 -3.773438 3.109375 -3.890625 C 3.003906 -4.015625 2.847656 -4.078125 2.640625 -4.078125 C 2.410156 -4.078125 2.210938 -4.003906 2.046875 -3.859375 C 1.890625 -3.722656 1.78125 -3.53125 1.71875 -3.28125 L 0.6875 -3.28125 C 0.800781 -3.832031 1.035156 -4.257812 1.390625 -4.5625 C 1.742188 -4.875 2.191406 -5.03125 2.734375 -5.03125 C 3.097656 -5.03125 3.40625 -4.957031 3.65625 -4.8125 C 3.914062 -4.675781 4.101562 -4.484375 4.21875 -4.234375 C 4.332031 -3.984375 4.351562 -3.695312 4.28125 -3.375 C 4.21875 -3.082031 4.09375 -2.804688 3.90625 -2.546875 C 3.71875 -2.296875 3.4375 -2.039062 3.0625 -1.78125 L 2.015625 -0.984375 L 3.890625 -0.984375 L 3.703125 0 Z M 0 0 "/></g></g></g><g fill="#2e2e2e" fill-opacity="1"><g transform="translate(135.20343, 247.054238)"><g><path d="M 2.171875 0.09375 C 1.734375 0.09375 1.367188 -0.0078125 1.078125 -0.21875 C 0.785156 -0.4375 0.585938 -0.738281 0.484375 -1.125 C 0.378906 -1.519531 0.378906 -1.992188 0.484375 -2.546875 C 0.640625 -3.328125 0.9375 -3.9375 1.375 -4.375 C 1.820312 -4.8125 2.367188 -5.03125 3.015625 -5.03125 C 3.460938 -5.03125 3.832031 -4.921875 4.125 -4.703125 C 4.414062 -4.492188 4.613281 -4.191406 4.71875 -3.796875 C 4.820312 -3.398438 4.816406 -2.925781 4.703125 -2.375 C 4.546875 -1.601562 4.25 -1 3.8125 -0.5625 C 3.375 -0.125 2.828125 0.09375 2.171875 0.09375 Z M 1.578125 -2.4375 C 1.472656 -1.945312 1.476562 -1.566406 1.59375 -1.296875 C 1.71875 -1.035156 1.941406 -0.90625 2.265625 -0.90625 C 2.597656 -0.90625 2.878906 -1.039062 3.109375 -1.3125 C 3.347656 -1.59375 3.519531 -1.984375 3.625 -2.484375 C 3.71875 -2.984375 3.703125 -3.363281 3.578125 -3.625 C 3.460938 -3.894531 3.25 -4.03125 2.9375 -4.03125 C 2.601562 -4.03125 2.316406 -3.890625 2.078125 -3.609375 C 1.835938 -3.328125 1.671875 -2.9375 1.578125 -2.4375 Z M 1.578125 -2.4375 "/></g></g></g><g fill="#2e2e2e" fill-opacity="1"><g transform="translate(140.146794, 247.054238)"><g><path d="M 0 0 L 0.140625 -0.796875 L 2.515625 -2.53125 C 2.734375 -2.695312 2.894531 -2.847656 3 -2.984375 C 3.113281 -3.117188 3.179688 -3.257812 3.203125 -3.40625 C 3.242188 -3.613281 3.210938 -3.773438 3.109375 -3.890625 C 3.003906 -4.015625 2.847656 -4.078125 2.640625 -4.078125 C 2.410156 -4.078125 2.210938 -4.003906 2.046875 -3.859375 C 1.890625 -3.722656 1.78125 -3.53125 1.71875 -3.28125 L 0.6875 -3.28125 C 0.800781 -3.832031 1.035156 -4.257812 1.390625 -4.5625 C 1.742188 -4.875 2.191406 -5.03125 2.734375 -5.03125 C 3.097656 -5.03125 3.40625 -4.957031 3.65625 -4.8125 C 3.914062 -4.675781 4.101562 -4.484375 4.21875 -4.234375 C 4.332031 -3.984375 4.351562 -3.695312 4.28125 -3.375 C 4.21875 -3.082031 4.09375 -2.804688 3.90625 -2.546875 C 3.71875 -2.296875 3.4375 -2.039062 3.0625 -1.78125 L 2.015625 -0.984375 L 3.890625 -0.984375 L 3.703125 0 Z M 0 0 "/></g></g></g><g fill="#2e2e2e" fill-opacity="1"><g transform="translate(144.688774, 247.054238)"><g><path d="M 0 -0.90625 L 0.15625 -1.6875 L 2.390625 -4.9375 L 3.640625 -4.9375 L 1.515625 -1.859375 L 2.703125 -1.859375 L 3.15625 -3.234375 L 4.03125 -3.234375 L 3.765625 -1.875 L 4.390625 -1.875 L 4.1875 -0.90625 L 3.578125 -0.90625 L 3.390625 0 L 2.28125 0 L 2.453125 -0.90625 Z M 0 -0.90625 "/></g></g></g></svg>