<svg xmlns="http://www.w3.org/2000/svg" xmlns:xlink="http://www.w3.org/1999/xlink" width="500" zoomAndPan="magnify" viewBox="0 0 375 374.999991" height="500" preserveAspectRatio="xMidYMid meet" version="1.0"><defs><g/></defs><g fill="#292929" fill-opacity="1"><g transform="translate(140.909878, 204.611691)"><g><path d="M 10.578125 -49.53125 C 10.429688 -49.53125 10.265625 -49.457031 10.078125 -49.3125 C 9.890625 -49.164062 9.710938 -48.898438 9.546875 -48.515625 C 9.378906 -48.140625 9.222656 -47.59375 9.078125 -46.875 C 8.929688 -46.164062 8.859375 -45.21875 8.859375 -44.03125 L 8.859375 -6.140625 C 8.859375 -5.003906 8.929688 -4.066406 9.078125 -3.328125 C 9.222656 -2.585938 9.378906 -2.023438 9.546875 -1.640625 C 9.710938 -1.265625 9.890625 -1.003906 10.078125 -0.859375 C 10.265625 -0.710938 10.429688 -0.640625 10.578125 -0.640625 L 10.578125 0 L 2.140625 0 L 2.140625 -0.640625 C 2.234375 -0.640625 2.375 -0.710938 2.5625 -0.859375 C 2.757812 -1.003906 2.941406 -1.265625 3.109375 -1.640625 C 3.273438 -2.023438 3.425781 -2.585938 3.5625 -3.328125 C 3.707031 -4.066406 3.78125 -5.003906 3.78125 -6.140625 L 3.78125 -44.03125 C 3.78125 -45.21875 3.707031 -46.164062 3.5625 -46.875 C 3.425781 -47.59375 3.273438 -48.140625 3.109375 -48.515625 C 2.941406 -48.898438 2.757812 -49.164062 2.5625 -49.3125 C 2.375 -49.457031 2.234375 -49.53125 2.140625 -49.53125 L 2.140625 -50.171875 L 10.578125 -50.171875 Z M 10.578125 -49.53125 "/></g></g></g><g fill="#292929" fill-opacity="1"><g transform="translate(152.416881, 204.611691)"><g><path d="M 3 -18.578125 C 2.09375 -21.960938 1.890625 -25.320312 2.390625 -28.65625 C 2.890625 -31.988281 3.945312 -35.0625 5.5625 -37.875 C 7.1875 -40.6875 9.304688 -43.128906 11.921875 -45.203125 C 14.546875 -47.273438 17.550781 -48.765625 20.9375 -49.671875 C 24.320312 -50.578125 27.679688 -50.789062 31.015625 -50.3125 C 34.347656 -49.832031 37.421875 -48.78125 40.234375 -47.15625 C 43.046875 -45.539062 45.488281 -43.410156 47.5625 -40.765625 C 49.632812 -38.128906 51.125 -35.117188 52.03125 -31.734375 C 52.9375 -28.347656 53.148438 -25 52.671875 -21.6875 C 52.191406 -18.375 51.140625 -15.3125 49.515625 -12.5 C 47.898438 -9.695312 45.769531 -7.242188 43.125 -5.140625 C 40.488281 -3.046875 37.476562 -1.546875 34.09375 -0.640625 C 30.707031 0.265625 27.359375 0.476562 24.046875 0 C 20.734375 -0.476562 17.671875 -1.535156 14.859375 -3.171875 C 12.054688 -4.816406 9.601562 -6.945312 7.5 -9.5625 C 5.40625 -12.1875 3.90625 -15.191406 3 -18.578125 Z M 46.953125 -30.375 C 46.242188 -33.132812 45.066406 -35.820312 43.421875 -38.4375 C 41.773438 -41.0625 39.816406 -43.300781 37.546875 -45.15625 C 35.285156 -47.019531 32.75 -48.34375 29.9375 -49.125 C 27.132812 -49.914062 24.207031 -49.90625 21.15625 -49.09375 C 18.0625 -48.289062 15.5 -46.835938 13.46875 -44.734375 C 11.445312 -42.640625 9.910156 -40.222656 8.859375 -37.484375 C 7.816406 -34.742188 7.242188 -31.820312 7.140625 -28.71875 C 7.046875 -25.625 7.359375 -22.695312 8.078125 -19.9375 C 8.835938 -17.175781 10.023438 -14.492188 11.640625 -11.890625 C 13.265625 -9.296875 15.21875 -7.070312 17.5 -5.21875 C 19.789062 -3.363281 22.328125 -2.03125 25.109375 -1.21875 C 27.898438 -0.40625 30.847656 -0.425781 33.953125 -1.28125 C 36.992188 -2.09375 39.523438 -3.546875 41.546875 -5.640625 C 43.578125 -7.742188 45.113281 -10.164062 46.15625 -12.90625 C 47.207031 -15.644531 47.789062 -18.550781 47.90625 -21.625 C 48.03125 -24.695312 47.710938 -27.613281 46.953125 -30.375 Z M 46.953125 -30.375 "/></g></g></g><g fill="#292929" fill-opacity="1"><g transform="translate(206.307157, 204.611691)"><g><path d="M 32.734375 -10.078125 C 33.492188 -8.742188 34.21875 -7.503906 34.90625 -6.359375 C 35.601562 -5.210938 36.238281 -4.210938 36.8125 -3.359375 C 37.382812 -2.503906 37.867188 -1.835938 38.265625 -1.359375 C 38.671875 -0.878906 39.019531 -0.640625 39.3125 -0.640625 L 39.3125 0 L 30.953125 0 L 30.953125 -0.640625 C 31.234375 -0.640625 31.109375 -1.378906 30.578125 -2.859375 C 30.054688 -4.335938 29.128906 -6.21875 27.796875 -8.5 L 16.9375 -27.296875 L 8.859375 -27.296875 L 8.859375 -6.140625 C 8.859375 -5.003906 8.914062 -4.066406 9.03125 -3.328125 C 9.15625 -2.585938 9.3125 -2.023438 9.5 -1.640625 C 9.695312 -1.265625 9.890625 -1.003906 10.078125 -0.859375 C 10.265625 -0.710938 10.40625 -0.640625 10.5 -0.640625 L 10.5 0 L 2.140625 0 L 2.140625 -0.640625 C 2.234375 -0.640625 2.375 -0.710938 2.5625 -0.859375 C 2.757812 -1.003906 2.941406 -1.265625 3.109375 -1.640625 C 3.273438 -2.023438 3.425781 -2.585938 3.5625 -3.328125 C 3.707031 -4.066406 3.78125 -5.003906 3.78125 -6.140625 L 3.78125 -44.03125 C 3.78125 -45.21875 3.707031 -46.164062 3.5625 -46.875 C 3.425781 -47.59375 3.273438 -48.140625 3.109375 -48.515625 C 2.941406 -48.898438 2.757812 -49.164062 2.5625 -49.3125 C 2.375 -49.457031 2.234375 -49.53125 2.140625 -49.53125 L 2.140625 -50.171875 L 2.78125 -50.171875 C 4.925781 -50.222656 7.140625 -50.363281 9.421875 -50.59375 C 11.710938 -50.832031 13.910156 -50.953125 16.015625 -50.953125 C 19.628906 -50.953125 22.675781 -50.65625 25.15625 -50.0625 C 27.632812 -49.46875 29.632812 -48.644531 31.15625 -47.59375 C 32.6875 -46.550781 33.785156 -45.300781 34.453125 -43.84375 C 35.117188 -42.394531 35.453125 -40.8125 35.453125 -39.09375 C 35.453125 -37.664062 35.222656 -36.332031 34.765625 -35.09375 C 34.316406 -33.851562 33.578125 -32.734375 32.546875 -31.734375 C 31.523438 -30.734375 30.191406 -29.882812 28.546875 -29.1875 C 26.910156 -28.5 24.921875 -27.988281 22.578125 -27.65625 Z M 8.859375 -49.953125 L 8.859375 -27.875 L 16.015625 -27.875 C 17.585938 -27.875 19.21875 -28.039062 20.90625 -28.375 C 22.59375 -28.707031 24.140625 -29.300781 25.546875 -30.15625 C 26.953125 -31.019531 28.117188 -32.175781 29.046875 -33.625 C 29.984375 -35.082031 30.453125 -36.90625 30.453125 -39.09375 C 30.453125 -41.28125 29.984375 -43.097656 29.046875 -44.546875 C 28.117188 -46.003906 26.953125 -47.160156 25.546875 -48.015625 C 24.140625 -48.878906 22.59375 -49.488281 20.90625 -49.84375 C 19.21875 -50.207031 17.585938 -50.390625 16.015625 -50.390625 C 14.910156 -50.390625 13.75 -50.335938 12.53125 -50.234375 C 11.320312 -50.140625 10.097656 -50.046875 8.859375 -49.953125 Z M 8.859375 -49.953125 "/></g></g></g><g fill="#292929" fill-opacity="1"><g transform="translate(246.546161, 204.611691)"><g><path d="M 32.875 -9.359375 C 32.351562 -10.929688 31.648438 -12.46875 30.765625 -13.96875 C 29.878906 -15.46875 28.84375 -16.8125 27.65625 -18 C 26.46875 -19.195312 25.132812 -20.1875 23.65625 -20.96875 C 22.175781 -21.757812 20.554688 -22.25 18.796875 -22.4375 C 18.128906 -22.488281 17.4375 -22.476562 16.71875 -22.40625 C 16.007812 -22.332031 15.320312 -22.175781 14.65625 -21.9375 C 13.988281 -21.695312 13.378906 -21.363281 12.828125 -20.9375 C 12.273438 -20.507812 11.882812 -19.9375 11.65625 -19.21875 L 8.140625 -8.796875 C 7.191406 -6.078125 6.726562 -4.035156 6.75 -2.671875 C 6.78125 -1.316406 7.269531 -0.640625 8.21875 -0.640625 L 8.21875 0 L 2.140625 0 L 2.140625 -0.640625 C 2.429688 -0.640625 2.765625 -0.769531 3.140625 -1.03125 C 3.523438 -1.289062 3.941406 -1.742188 4.390625 -2.390625 C 4.847656 -3.035156 5.335938 -3.894531 5.859375 -4.96875 C 6.378906 -6.039062 6.925781 -7.382812 7.5 -9 L 20.21875 -46.234375 L 18.875 -50.171875 L 24.296875 -50.171875 L 37.953125 -10.359375 C 38.429688 -9.023438 38.894531 -7.757812 39.34375 -6.5625 C 39.789062 -5.375 40.21875 -4.335938 40.625 -3.453125 C 41.03125 -2.578125 41.398438 -1.890625 41.734375 -1.390625 C 42.066406 -0.890625 42.378906 -0.640625 42.671875 -0.640625 L 42.671875 0 L 34.3125 0 L 34.3125 -0.640625 C 34.539062 -0.640625 34.617188 -1.304688 34.546875 -2.640625 C 34.484375 -3.972656 34.117188 -5.640625 33.453125 -7.640625 Z M 12.4375 -21.375 C 13.25 -22.132812 14.25 -22.617188 15.4375 -22.828125 C 16.625 -23.046875 17.742188 -23.109375 18.796875 -23.015625 C 21.515625 -22.773438 23.894531 -21.867188 25.9375 -20.296875 C 27.988281 -18.722656 29.707031 -16.84375 31.09375 -14.65625 L 20.578125 -45.234375 Z M 12.4375 -21.375 "/></g></g></g><g fill="#292929" fill-opacity="1"><g transform="translate(96.046287, 204.631597)"><g><path d="M 36.65625 -50.171875 L 42.734375 -50.171875 L 42.734375 -49.53125 C 42.453125 -49.53125 42.117188 -49.394531 41.734375 -49.125 C 41.359375 -48.863281 40.929688 -48.410156 40.453125 -47.765625 C 39.972656 -47.128906 39.472656 -46.285156 38.953125 -45.234375 C 38.429688 -44.191406 37.90625 -42.859375 37.375 -41.234375 L 24.578125 -4 L 25.9375 0 L 20.578125 0 L 6.9375 -39.8125 C 6.457031 -41.144531 5.988281 -42.40625 5.53125 -43.59375 C 5.082031 -44.78125 4.65625 -45.816406 4.25 -46.703125 C 3.84375 -47.585938 3.460938 -48.28125 3.109375 -48.78125 C 2.753906 -49.28125 2.429688 -49.53125 2.140625 -49.53125 L 2.140625 -50.171875 L 10.578125 -50.171875 L 10.578125 -49.53125 C 10.296875 -49.53125 10.203125 -48.875 10.296875 -47.5625 C 10.390625 -46.25 10.742188 -44.59375 11.359375 -42.59375 L 24.296875 -4.9375 L 36.734375 -41.375 C 38.585938 -46.8125 38.5625 -49.53125 36.65625 -49.53125 Z M 36.65625 -50.171875 "/></g></g></g><g fill="#292929" fill-opacity="1"><g transform="translate(144.688412, 217.223789)"><g><path d="M 6.03125 -2.9375 C 6.03125 -2.507812 5.957031 -2.109375 5.8125 -1.734375 C 5.675781 -1.367188 5.484375 -1.050781 5.234375 -0.78125 C 4.984375 -0.507812 4.679688 -0.296875 4.328125 -0.140625 C 3.984375 0.00390625 3.609375 0.078125 3.203125 0.078125 C 2.785156 0.078125 2.40625 0.00390625 2.0625 -0.140625 C 1.71875 -0.296875 1.421875 -0.507812 1.171875 -0.78125 C 0.921875 -1.050781 0.722656 -1.367188 0.578125 -1.734375 C 0.441406 -2.109375 0.375 -2.507812 0.375 -2.9375 C 0.375 -3.375 0.441406 -3.773438 0.578125 -4.140625 C 0.722656 -4.503906 0.921875 -4.820312 1.171875 -5.09375 C 1.421875 -5.363281 1.71875 -5.570312 2.0625 -5.71875 C 2.40625 -5.875 2.785156 -5.953125 3.203125 -5.953125 C 3.609375 -5.953125 3.984375 -5.875 4.328125 -5.71875 C 4.679688 -5.570312 4.984375 -5.363281 5.234375 -5.09375 C 5.484375 -4.820312 5.675781 -4.503906 5.8125 -4.140625 C 5.957031 -3.773438 6.03125 -3.375 6.03125 -2.9375 Z M 5.3125 -2.9375 C 5.3125 -3.394531 5.21875 -3.800781 5.03125 -4.15625 C 4.851562 -4.507812 4.609375 -4.785156 4.296875 -4.984375 C 3.984375 -5.179688 3.617188 -5.28125 3.203125 -5.28125 C 2.785156 -5.28125 2.421875 -5.179688 2.109375 -4.984375 C 1.796875 -4.785156 1.546875 -4.507812 1.359375 -4.15625 C 1.179688 -3.800781 1.09375 -3.394531 1.09375 -2.9375 C 1.09375 -2.476562 1.179688 -2.070312 1.359375 -1.71875 C 1.546875 -1.363281 1.796875 -1.085938 2.109375 -0.890625 C 2.421875 -0.691406 2.785156 -0.59375 3.203125 -0.59375 C 3.617188 -0.59375 3.984375 -0.691406 4.296875 -0.890625 C 4.609375 -1.085938 4.851562 -1.363281 5.03125 -1.71875 C 5.21875 -2.070312 5.3125 -2.476562 5.3125 -2.9375 Z M 5.3125 -2.9375 "/></g></g></g><g fill="#292929" fill-opacity="1"><g transform="translate(153.490007, 217.223789)"><g><path d="M 5.078125 -5.875 C 5.179688 -5.875 5.257812 -5.84375 5.3125 -5.78125 C 5.363281 -5.726562 5.390625 -5.65625 5.390625 -5.5625 L 5.390625 -0.359375 C 5.390625 -0.242188 5.351562 -0.15625 5.28125 -0.09375 C 5.21875 -0.03125 5.140625 0 5.046875 0 C 4.992188 0 4.941406 -0.0078125 4.890625 -0.03125 C 4.847656 -0.0507812 4.8125 -0.078125 4.78125 -0.109375 L 1.1875 -4.859375 L 1.359375 -4.953125 L 1.359375 -0.3125 C 1.359375 -0.21875 1.328125 -0.140625 1.265625 -0.078125 C 1.210938 -0.0234375 1.140625 0 1.046875 0 C 0.953125 0 0.875 -0.0234375 0.8125 -0.078125 C 0.757812 -0.140625 0.734375 -0.21875 0.734375 -0.3125 L 0.734375 -5.53125 C 0.734375 -5.632812 0.765625 -5.71875 0.828125 -5.78125 C 0.898438 -5.84375 0.976562 -5.875 1.0625 -5.875 C 1.113281 -5.875 1.164062 -5.863281 1.21875 -5.84375 C 1.269531 -5.820312 1.3125 -5.789062 1.34375 -5.75 L 4.890625 -1.078125 L 4.78125 -0.9375 L 4.78125 -5.5625 C 4.78125 -5.65625 4.804688 -5.726562 4.859375 -5.78125 C 4.921875 -5.84375 4.992188 -5.875 5.078125 -5.875 Z M 5.078125 -5.875 "/></g></g></g><g fill="#292929" fill-opacity="1"><g transform="translate(162.006724, 217.223789)"><g><path d="M 3.984375 -0.65625 C 4.078125 -0.65625 4.15625 -0.625 4.21875 -0.5625 C 4.289062 -0.5 4.328125 -0.421875 4.328125 -0.328125 C 4.328125 -0.234375 4.289062 -0.15625 4.21875 -0.09375 C 4.15625 -0.03125 4.078125 0 3.984375 0 L 1.078125 0 C 0.984375 0 0.898438 -0.03125 0.828125 -0.09375 C 0.765625 -0.164062 0.734375 -0.25 0.734375 -0.34375 L 0.734375 -5.53125 C 0.734375 -5.632812 0.765625 -5.71875 0.828125 -5.78125 C 0.898438 -5.84375 0.988281 -5.875 1.09375 -5.875 C 1.1875 -5.875 1.265625 -5.84375 1.328125 -5.78125 C 1.398438 -5.71875 1.4375 -5.632812 1.4375 -5.53125 L 1.4375 -0.515625 L 1.265625 -0.65625 Z M 3.984375 -0.65625 "/></g></g></g><g fill="#292929" fill-opacity="1"><g transform="translate(168.94822, 217.223789)"><g><path d="M 1.4375 -0.34375 C 1.4375 -0.25 1.398438 -0.164062 1.328125 -0.09375 C 1.253906 -0.03125 1.171875 0 1.078125 0 C 0.972656 0 0.890625 -0.03125 0.828125 -0.09375 C 0.765625 -0.164062 0.734375 -0.25 0.734375 -0.34375 L 0.734375 -5.53125 C 0.734375 -5.632812 0.765625 -5.71875 0.828125 -5.78125 C 0.898438 -5.84375 0.988281 -5.875 1.09375 -5.875 C 1.1875 -5.875 1.265625 -5.84375 1.328125 -5.78125 C 1.398438 -5.71875 1.4375 -5.632812 1.4375 -5.53125 Z M 1.4375 -0.34375 "/></g></g></g><g fill="#292929" fill-opacity="1"><g transform="translate(173.518486, 217.223789)"><g><path d="M 5.078125 -5.875 C 5.179688 -5.875 5.257812 -5.84375 5.3125 -5.78125 C 5.363281 -5.726562 5.390625 -5.65625 5.390625 -5.5625 L 5.390625 -0.359375 C 5.390625 -0.242188 5.351562 -0.15625 5.28125 -0.09375 C 5.21875 -0.03125 5.140625 0 5.046875 0 C 4.992188 0 4.941406 -0.0078125 4.890625 -0.03125 C 4.847656 -0.0507812 4.8125 -0.078125 4.78125 -0.109375 L 1.1875 -4.859375 L 1.359375 -4.953125 L 1.359375 -0.3125 C 1.359375 -0.21875 1.328125 -0.140625 1.265625 -0.078125 C 1.210938 -0.0234375 1.140625 0 1.046875 0 C 0.953125 0 0.875 -0.0234375 0.8125 -0.078125 C 0.757812 -0.140625 0.734375 -0.21875 0.734375 -0.3125 L 0.734375 -5.53125 C 0.734375 -5.632812 0.765625 -5.71875 0.828125 -5.78125 C 0.898438 -5.84375 0.976562 -5.875 1.0625 -5.875 C 1.113281 -5.875 1.164062 -5.863281 1.21875 -5.84375 C 1.269531 -5.820312 1.3125 -5.789062 1.34375 -5.75 L 4.890625 -1.078125 L 4.78125 -0.9375 L 4.78125 -5.5625 C 4.78125 -5.65625 4.804688 -5.726562 4.859375 -5.78125 C 4.921875 -5.84375 4.992188 -5.875 5.078125 -5.875 Z M 5.078125 -5.875 "/></g></g></g><g fill="#292929" fill-opacity="1"><g transform="translate(182.035202, 217.223789)"><g><path d="M 1.078125 -5.875 L 4.0625 -5.875 C 4.15625 -5.875 4.234375 -5.84375 4.296875 -5.78125 C 4.367188 -5.71875 4.40625 -5.640625 4.40625 -5.546875 C 4.40625 -5.453125 4.367188 -5.375 4.296875 -5.3125 C 4.234375 -5.257812 4.15625 -5.234375 4.0625 -5.234375 L 1.359375 -5.234375 L 1.4375 -5.375 L 1.4375 -3.25 L 1.34375 -3.34375 L 3.6875 -3.34375 C 3.78125 -3.34375 3.859375 -3.3125 3.921875 -3.25 C 3.992188 -3.1875 4.03125 -3.109375 4.03125 -3.015625 C 4.03125 -2.921875 3.992188 -2.84375 3.921875 -2.78125 C 3.859375 -2.71875 3.78125 -2.6875 3.6875 -2.6875 L 1.375 -2.6875 L 1.4375 -2.765625 L 1.4375 -0.59375 L 1.390625 -0.65625 L 4.0625 -0.65625 C 4.15625 -0.65625 4.234375 -0.617188 4.296875 -0.546875 C 4.367188 -0.484375 4.40625 -0.410156 4.40625 -0.328125 C 4.40625 -0.234375 4.367188 -0.15625 4.296875 -0.09375 C 4.234375 -0.03125 4.15625 0 4.0625 0 L 1.078125 0 C 0.984375 0 0.898438 -0.03125 0.828125 -0.09375 C 0.765625 -0.164062 0.734375 -0.25 0.734375 -0.34375 L 0.734375 -5.53125 C 0.734375 -5.632812 0.765625 -5.71875 0.828125 -5.78125 C 0.898438 -5.84375 0.984375 -5.875 1.078125 -5.875 Z M 1.078125 -5.875 "/></g></g></g><g fill="#292929" fill-opacity="1"><g transform="translate(189.211299, 217.223789)"><g/></g></g><g fill="#292929" fill-opacity="1"><g transform="translate(193.915633, 217.223789)"><g><path d="M 2.453125 0.078125 C 2.035156 0.078125 1.671875 0.0195312 1.359375 -0.09375 C 1.046875 -0.21875 0.742188 -0.414062 0.453125 -0.6875 C 0.410156 -0.726562 0.375 -0.769531 0.34375 -0.8125 C 0.320312 -0.863281 0.3125 -0.914062 0.3125 -0.96875 C 0.3125 -1.0625 0.34375 -1.140625 0.40625 -1.203125 C 0.476562 -1.273438 0.5625 -1.3125 0.65625 -1.3125 C 0.726562 -1.3125 0.796875 -1.28125 0.859375 -1.21875 C 1.078125 -1.007812 1.3125 -0.847656 1.5625 -0.734375 C 1.820312 -0.628906 2.113281 -0.578125 2.4375 -0.578125 C 2.675781 -0.578125 2.894531 -0.613281 3.09375 -0.6875 C 3.289062 -0.769531 3.445312 -0.878906 3.5625 -1.015625 C 3.6875 -1.148438 3.75 -1.3125 3.75 -1.5 C 3.75 -1.726562 3.679688 -1.914062 3.546875 -2.0625 C 3.421875 -2.207031 3.25 -2.328125 3.03125 -2.421875 C 2.8125 -2.515625 2.554688 -2.597656 2.265625 -2.671875 C 2.003906 -2.734375 1.765625 -2.804688 1.546875 -2.890625 C 1.335938 -2.984375 1.15625 -3.09375 1 -3.21875 C 0.84375 -3.351562 0.71875 -3.515625 0.625 -3.703125 C 0.539062 -3.890625 0.5 -4.109375 0.5 -4.359375 C 0.5 -4.679688 0.582031 -4.960938 0.75 -5.203125 C 0.914062 -5.441406 1.144531 -5.625 1.4375 -5.75 C 1.738281 -5.882812 2.082031 -5.953125 2.46875 -5.953125 C 2.8125 -5.953125 3.132812 -5.894531 3.4375 -5.78125 C 3.75 -5.675781 3.992188 -5.523438 4.171875 -5.328125 C 4.285156 -5.222656 4.34375 -5.117188 4.34375 -5.015625 C 4.34375 -4.929688 4.304688 -4.851562 4.234375 -4.78125 C 4.171875 -4.71875 4.09375 -4.6875 4 -4.6875 C 3.9375 -4.6875 3.878906 -4.707031 3.828125 -4.75 C 3.734375 -4.851562 3.613281 -4.945312 3.46875 -5.03125 C 3.320312 -5.113281 3.160156 -5.179688 2.984375 -5.234375 C 2.816406 -5.285156 2.644531 -5.3125 2.46875 -5.3125 C 2.21875 -5.3125 1.992188 -5.269531 1.796875 -5.1875 C 1.597656 -5.113281 1.441406 -5.007812 1.328125 -4.875 C 1.222656 -4.738281 1.171875 -4.578125 1.171875 -4.390625 C 1.171875 -4.171875 1.234375 -3.992188 1.359375 -3.859375 C 1.484375 -3.722656 1.648438 -3.609375 1.859375 -3.515625 C 2.066406 -3.429688 2.296875 -3.359375 2.546875 -3.296875 C 2.816406 -3.234375 3.066406 -3.15625 3.296875 -3.0625 C 3.535156 -2.976562 3.738281 -2.867188 3.90625 -2.734375 C 4.070312 -2.609375 4.203125 -2.445312 4.296875 -2.25 C 4.390625 -2.050781 4.4375 -1.804688 4.4375 -1.515625 C 4.4375 -1.210938 4.347656 -0.9375 4.171875 -0.6875 C 3.992188 -0.445312 3.753906 -0.257812 3.453125 -0.125 C 3.160156 0.0078125 2.828125 0.078125 2.453125 0.078125 Z M 2.453125 0.078125 "/></g></g></g><g fill="#292929" fill-opacity="1"><g transform="translate(201.12525, 217.223789)"><g><path d="M 2.5625 0 C 2.457031 0 2.367188 -0.03125 2.296875 -0.09375 C 2.234375 -0.164062 2.203125 -0.25 2.203125 -0.34375 L 2.203125 -5.53125 L 2.921875 -5.53125 L 2.921875 -0.34375 C 2.921875 -0.25 2.882812 -0.164062 2.8125 -0.09375 C 2.75 -0.03125 2.664062 0 2.5625 0 Z M 0.609375 -5.234375 C 0.515625 -5.234375 0.4375 -5.257812 0.375 -5.3125 C 0.3125 -5.375 0.28125 -5.453125 0.28125 -5.546875 C 0.28125 -5.648438 0.3125 -5.726562 0.375 -5.78125 C 0.4375 -5.84375 0.515625 -5.875 0.609375 -5.875 L 4.515625 -5.875 C 4.609375 -5.875 4.6875 -5.84375 4.75 -5.78125 C 4.820312 -5.726562 4.859375 -5.648438 4.859375 -5.546875 C 4.859375 -5.453125 4.820312 -5.375 4.75 -5.3125 C 4.6875 -5.257812 4.609375 -5.234375 4.515625 -5.234375 Z M 0.609375 -5.234375 "/></g></g></g><g fill="#292929" fill-opacity="1"><g transform="translate(208.644876, 217.223789)"><g><path d="M 6.03125 -2.9375 C 6.03125 -2.507812 5.957031 -2.109375 5.8125 -1.734375 C 5.675781 -1.367188 5.484375 -1.050781 5.234375 -0.78125 C 4.984375 -0.507812 4.679688 -0.296875 4.328125 -0.140625 C 3.984375 0.00390625 3.609375 0.078125 3.203125 0.078125 C 2.785156 0.078125 2.40625 0.00390625 2.0625 -0.140625 C 1.71875 -0.296875 1.421875 -0.507812 1.171875 -0.78125 C 0.921875 -1.050781 0.722656 -1.367188 0.578125 -1.734375 C 0.441406 -2.109375 0.375 -2.507812 0.375 -2.9375 C 0.375 -3.375 0.441406 -3.773438 0.578125 -4.140625 C 0.722656 -4.503906 0.921875 -4.820312 1.171875 -5.09375 C 1.421875 -5.363281 1.71875 -5.570312 2.0625 -5.71875 C 2.40625 -5.875 2.785156 -5.953125 3.203125 -5.953125 C 3.609375 -5.953125 3.984375 -5.875 4.328125 -5.71875 C 4.679688 -5.570312 4.984375 -5.363281 5.234375 -5.09375 C 5.484375 -4.820312 5.675781 -4.503906 5.8125 -4.140625 C 5.957031 -3.773438 6.03125 -3.375 6.03125 -2.9375 Z M 5.3125 -2.9375 C 5.3125 -3.394531 5.21875 -3.800781 5.03125 -4.15625 C 4.851562 -4.507812 4.609375 -4.785156 4.296875 -4.984375 C 3.984375 -5.179688 3.617188 -5.28125 3.203125 -5.28125 C 2.785156 -5.28125 2.421875 -5.179688 2.109375 -4.984375 C 1.796875 -4.785156 1.546875 -4.507812 1.359375 -4.15625 C 1.179688 -3.800781 1.09375 -3.394531 1.09375 -2.9375 C 1.09375 -2.476562 1.179688 -2.070312 1.359375 -1.71875 C 1.546875 -1.363281 1.796875 -1.085938 2.109375 -0.890625 C 2.421875 -0.691406 2.785156 -0.59375 3.203125 -0.59375 C 3.617188 -0.59375 3.984375 -0.691406 4.296875 -0.890625 C 4.609375 -1.085938 4.851562 -1.363281 5.03125 -1.71875 C 5.21875 -2.070312 5.3125 -2.476562 5.3125 -2.9375 Z M 5.3125 -2.9375 "/></g></g></g><g fill="#292929" fill-opacity="1"><g transform="translate(217.44647, 217.223789)"><g><path d="M 1.125 0 C 1.019531 0 0.925781 -0.03125 0.84375 -0.09375 C 0.769531 -0.164062 0.734375 -0.25 0.734375 -0.34375 L 0.734375 -5.53125 C 0.734375 -5.632812 0.765625 -5.71875 0.828125 -5.78125 C 0.898438 -5.84375 0.984375 -5.875 1.078125 -5.875 L 3.390625 -5.875 C 3.703125 -5.875 3.984375 -5.800781 4.234375 -5.65625 C 4.484375 -5.519531 4.679688 -5.328125 4.828125 -5.078125 C 4.984375 -4.828125 5.0625 -4.539062 5.0625 -4.21875 C 5.0625 -3.976562 5.015625 -3.753906 4.921875 -3.546875 C 4.835938 -3.347656 4.71875 -3.171875 4.5625 -3.015625 C 4.40625 -2.867188 4.222656 -2.757812 4.015625 -2.6875 L 3.828125 -2.8125 C 4.023438 -2.769531 4.195312 -2.691406 4.34375 -2.578125 C 4.5 -2.460938 4.625 -2.316406 4.71875 -2.140625 C 4.8125 -1.960938 4.859375 -1.757812 4.859375 -1.53125 C 4.878906 -1.320312 4.894531 -1.15625 4.90625 -1.03125 C 4.925781 -0.90625 4.953125 -0.804688 4.984375 -0.734375 C 5.015625 -0.671875 5.0625 -0.617188 5.125 -0.578125 C 5.207031 -0.523438 5.257812 -0.457031 5.28125 -0.375 C 5.300781 -0.289062 5.285156 -0.210938 5.234375 -0.140625 C 5.203125 -0.0859375 5.15625 -0.0507812 5.09375 -0.03125 C 5.03125 -0.0078125 4.96875 0 4.90625 0 C 4.84375 -0.0078125 4.789062 -0.03125 4.75 -0.0625 C 4.65625 -0.113281 4.566406 -0.1875 4.484375 -0.28125 C 4.398438 -0.375 4.332031 -0.515625 4.28125 -0.703125 C 4.226562 -0.890625 4.203125 -1.140625 4.203125 -1.453125 C 4.203125 -1.640625 4.171875 -1.789062 4.109375 -1.90625 C 4.054688 -2.019531 3.984375 -2.113281 3.890625 -2.1875 C 3.796875 -2.257812 3.6875 -2.3125 3.5625 -2.34375 C 3.445312 -2.375 3.328125 -2.390625 3.203125 -2.390625 L 1.328125 -2.390625 L 1.4375 -2.53125 L 1.4375 -0.34375 C 1.4375 -0.25 1.40625 -0.164062 1.34375 -0.09375 C 1.289062 -0.03125 1.21875 0 1.125 0 Z M 1.328125 -2.984375 L 3.390625 -2.984375 C 3.554688 -2.992188 3.707031 -3.050781 3.84375 -3.15625 C 3.988281 -3.257812 4.109375 -3.398438 4.203125 -3.578125 C 4.296875 -3.753906 4.34375 -3.960938 4.34375 -4.203125 C 4.34375 -4.492188 4.25 -4.738281 4.0625 -4.9375 C 3.875 -5.132812 3.632812 -5.234375 3.34375 -5.234375 L 1.375 -5.234375 L 1.4375 -5.390625 L 1.4375 -2.84375 Z M 1.328125 -2.984375 "/></g></g></g><g fill="#292929" fill-opacity="1"><g transform="translate(225.510732, 217.223789)"><g><path d="M 1.078125 -5.875 L 4.0625 -5.875 C 4.15625 -5.875 4.234375 -5.84375 4.296875 -5.78125 C 4.367188 -5.71875 4.40625 -5.640625 4.40625 -5.546875 C 4.40625 -5.453125 4.367188 -5.375 4.296875 -5.3125 C 4.234375 -5.257812 4.15625 -5.234375 4.0625 -5.234375 L 1.359375 -5.234375 L 1.4375 -5.375 L 1.4375 -3.25 L 1.34375 -3.34375 L 3.6875 -3.34375 C 3.78125 -3.34375 3.859375 -3.3125 3.921875 -3.25 C 3.992188 -3.1875 4.03125 -3.109375 4.03125 -3.015625 C 4.03125 -2.921875 3.992188 -2.84375 3.921875 -2.78125 C 3.859375 -2.71875 3.78125 -2.6875 3.6875 -2.6875 L 1.375 -2.6875 L 1.4375 -2.765625 L 1.4375 -0.59375 L 1.390625 -0.65625 L 4.0625 -0.65625 C 4.15625 -0.65625 4.234375 -0.617188 4.296875 -0.546875 C 4.367188 -0.484375 4.40625 -0.410156 4.40625 -0.328125 C 4.40625 -0.234375 4.367188 -0.15625 4.296875 -0.09375 C 4.234375 -0.03125 4.15625 0 4.0625 0 L 1.078125 0 C 0.984375 0 0.898438 -0.03125 0.828125 -0.09375 C 0.765625 -0.164062 0.734375 -0.25 0.734375 -0.34375 L 0.734375 -5.53125 C 0.734375 -5.632812 0.765625 -5.71875 0.828125 -5.78125 C 0.898438 -5.84375 0.984375 -5.875 1.078125 -5.875 Z M 1.078125 -5.875 "/></g></g></g><g fill="#292929" fill-opacity="1"><g transform="translate(175.149674, 299.471524)"><g><path d="M 0.953125 -5.1875 L 3.578125 -5.1875 C 3.660156 -5.1875 3.734375 -5.15625 3.796875 -5.09375 C 3.859375 -5.039062 3.890625 -4.972656 3.890625 -4.890625 C 3.890625 -4.804688 3.859375 -4.738281 3.796875 -4.6875 C 3.734375 -4.632812 3.660156 -4.609375 3.578125 -4.609375 L 1.203125 -4.609375 L 1.265625 -4.734375 L 1.265625 -2.859375 L 1.1875 -2.953125 L 3.25 -2.953125 C 3.332031 -2.953125 3.40625 -2.921875 3.46875 -2.859375 C 3.53125 -2.804688 3.5625 -2.738281 3.5625 -2.65625 C 3.5625 -2.570312 3.53125 -2.503906 3.46875 -2.453125 C 3.40625 -2.398438 3.332031 -2.375 3.25 -2.375 L 1.21875 -2.375 L 1.265625 -2.4375 L 1.265625 -0.53125 L 1.21875 -0.578125 L 3.578125 -0.578125 C 3.660156 -0.578125 3.734375 -0.546875 3.796875 -0.484375 C 3.859375 -0.429688 3.890625 -0.363281 3.890625 -0.28125 C 3.890625 -0.195312 3.859375 -0.128906 3.796875 -0.078125 C 3.734375 -0.0234375 3.660156 0 3.578125 0 L 0.953125 0 C 0.867188 0 0.796875 -0.0234375 0.734375 -0.078125 C 0.679688 -0.140625 0.65625 -0.210938 0.65625 -0.296875 L 0.65625 -4.890625 C 0.65625 -4.972656 0.679688 -5.039062 0.734375 -5.09375 C 0.796875 -5.15625 0.867188 -5.1875 0.953125 -5.1875 Z M 0.953125 -5.1875 "/></g></g></g><g fill="#292929" fill-opacity="1"><g transform="translate(181.49067, 299.471524)"><g><path d="M 2.15625 0.078125 C 1.789062 0.078125 1.46875 0.0234375 1.1875 -0.078125 C 0.914062 -0.191406 0.65625 -0.367188 0.40625 -0.609375 C 0.363281 -0.640625 0.332031 -0.675781 0.3125 -0.71875 C 0.289062 -0.757812 0.28125 -0.804688 0.28125 -0.859375 C 0.28125 -0.941406 0.304688 -1.007812 0.359375 -1.0625 C 0.421875 -1.125 0.492188 -1.15625 0.578125 -1.15625 C 0.648438 -1.15625 0.710938 -1.128906 0.765625 -1.078125 C 0.953125 -0.890625 1.15625 -0.742188 1.375 -0.640625 C 1.601562 -0.546875 1.859375 -0.5 2.140625 -0.5 C 2.359375 -0.5 2.554688 -0.535156 2.734375 -0.609375 C 2.910156 -0.679688 3.050781 -0.773438 3.15625 -0.890625 C 3.257812 -1.015625 3.3125 -1.160156 3.3125 -1.328125 C 3.300781 -1.523438 3.238281 -1.6875 3.125 -1.8125 C 3.019531 -1.9375 2.867188 -2.039062 2.671875 -2.125 C 2.484375 -2.21875 2.257812 -2.296875 2 -2.359375 C 1.769531 -2.410156 1.5625 -2.472656 1.375 -2.546875 C 1.1875 -2.628906 1.019531 -2.726562 0.875 -2.84375 C 0.738281 -2.957031 0.628906 -3.097656 0.546875 -3.265625 C 0.472656 -3.429688 0.4375 -3.625 0.4375 -3.84375 C 0.4375 -4.125 0.507812 -4.367188 0.65625 -4.578125 C 0.8125 -4.796875 1.019531 -4.960938 1.28125 -5.078125 C 1.539062 -5.203125 1.84375 -5.265625 2.1875 -5.265625 C 2.488281 -5.265625 2.769531 -5.210938 3.03125 -5.109375 C 3.300781 -5.015625 3.519531 -4.878906 3.6875 -4.703125 C 3.789062 -4.609375 3.84375 -4.515625 3.84375 -4.421875 C 3.84375 -4.347656 3.8125 -4.28125 3.75 -4.21875 C 3.6875 -4.15625 3.613281 -4.125 3.53125 -4.125 C 3.476562 -4.125 3.429688 -4.144531 3.390625 -4.1875 C 3.304688 -4.28125 3.195312 -4.363281 3.0625 -4.4375 C 2.9375 -4.519531 2.796875 -4.582031 2.640625 -4.625 C 2.492188 -4.664062 2.34375 -4.6875 2.1875 -4.6875 C 1.957031 -4.6875 1.753906 -4.648438 1.578125 -4.578125 C 1.410156 -4.515625 1.273438 -4.421875 1.171875 -4.296875 C 1.078125 -4.179688 1.03125 -4.039062 1.03125 -3.875 C 1.03125 -3.6875 1.082031 -3.53125 1.1875 -3.40625 C 1.300781 -3.289062 1.445312 -3.191406 1.625 -3.109375 C 1.8125 -3.035156 2.019531 -2.96875 2.25 -2.90625 C 2.488281 -2.851562 2.707031 -2.785156 2.90625 -2.703125 C 3.113281 -2.628906 3.289062 -2.535156 3.4375 -2.421875 C 3.59375 -2.304688 3.707031 -2.160156 3.78125 -1.984375 C 3.863281 -1.804688 3.90625 -1.59375 3.90625 -1.34375 C 3.90625 -1.070312 3.828125 -0.828125 3.671875 -0.609375 C 3.523438 -0.398438 3.316406 -0.234375 3.046875 -0.109375 C 2.785156 0.00390625 2.488281 0.0664062 2.15625 0.078125 Z M 2.15625 0.078125 "/></g></g></g><g fill="#292929" fill-opacity="1"><g transform="translate(187.861294, 299.471524)"><g><path d="M 2.265625 0 C 2.171875 0 2.09375 -0.0234375 2.03125 -0.078125 C 1.976562 -0.140625 1.953125 -0.210938 1.953125 -0.296875 L 1.953125 -4.875 L 2.578125 -4.875 L 2.578125 -0.296875 C 2.578125 -0.210938 2.546875 -0.140625 2.484375 -0.078125 C 2.429688 -0.0234375 2.359375 0 2.265625 0 Z M 0.546875 -4.625 C 0.460938 -4.625 0.390625 -4.648438 0.328125 -4.703125 C 0.273438 -4.753906 0.25 -4.820312 0.25 -4.90625 C 0.25 -4.988281 0.273438 -5.054688 0.328125 -5.109375 C 0.390625 -5.160156 0.460938 -5.1875 0.546875 -5.1875 L 3.984375 -5.1875 C 4.066406 -5.1875 4.132812 -5.160156 4.1875 -5.109375 C 4.25 -5.054688 4.28125 -4.988281 4.28125 -4.90625 C 4.28125 -4.8125 4.25 -4.738281 4.1875 -4.6875 C 4.132812 -4.644531 4.066406 -4.625 3.984375 -4.625 Z M 0.546875 -4.625 "/></g></g></g><g fill="#292929" fill-opacity="1"><g transform="translate(194.505947, 299.471524)"><g><path d="M 2.796875 -5.1875 C 3.160156 -5.1875 3.476562 -5.117188 3.75 -4.984375 C 4.019531 -4.847656 4.242188 -4.65625 4.421875 -4.40625 C 4.609375 -4.164062 4.75 -3.890625 4.84375 -3.578125 C 4.9375 -3.265625 4.984375 -2.9375 4.984375 -2.59375 C 4.984375 -2.113281 4.898438 -1.675781 4.734375 -1.28125 C 4.578125 -0.894531 4.335938 -0.582031 4.015625 -0.34375 C 3.691406 -0.113281 3.285156 0 2.796875 0 L 0.953125 0 C 0.867188 0 0.796875 -0.0234375 0.734375 -0.078125 C 0.679688 -0.140625 0.65625 -0.210938 0.65625 -0.296875 L 0.65625 -4.890625 C 0.65625 -4.972656 0.679688 -5.039062 0.734375 -5.09375 C 0.796875 -5.15625 0.867188 -5.1875 0.953125 -5.1875 Z M 2.71875 -0.578125 C 3.101562 -0.578125 3.414062 -0.664062 3.65625 -0.84375 C 3.894531 -1.03125 4.066406 -1.273438 4.171875 -1.578125 C 4.285156 -1.890625 4.34375 -2.226562 4.34375 -2.59375 C 4.34375 -2.851562 4.3125 -3.101562 4.25 -3.34375 C 4.1875 -3.59375 4.085938 -3.8125 3.953125 -4 C 3.828125 -4.1875 3.660156 -4.332031 3.453125 -4.4375 C 3.253906 -4.550781 3.007812 -4.609375 2.71875 -4.609375 L 1.203125 -4.609375 L 1.265625 -4.671875 L 1.265625 -0.5 L 1.21875 -0.578125 Z M 2.71875 -0.578125 "/></g></g></g><g fill="#292929" fill-opacity="1"><g transform="translate(175.923112, 306.971524)"><g><path d="M 3.46875 -0.5625 C 3.550781 -0.5625 3.617188 -0.53125 3.671875 -0.46875 C 3.722656 -0.414062 3.75 -0.351562 3.75 -0.28125 C 3.75 -0.195312 3.722656 -0.128906 3.671875 -0.078125 C 3.617188 -0.0234375 3.550781 0 3.46875 0 L 0.78125 0 C 0.695312 0 0.625 -0.0234375 0.5625 -0.078125 C 0.507812 -0.128906 0.484375 -0.195312 0.484375 -0.28125 C 0.484375 -0.363281 0.507812 -0.4375 0.5625 -0.5 L 2.25 -2.328125 C 2.488281 -2.597656 2.671875 -2.847656 2.796875 -3.078125 C 2.921875 -3.316406 2.984375 -3.523438 2.984375 -3.703125 C 2.984375 -4.003906 2.894531 -4.242188 2.71875 -4.421875 C 2.539062 -4.609375 2.300781 -4.703125 2 -4.703125 C 1.863281 -4.703125 1.726562 -4.671875 1.59375 -4.609375 C 1.46875 -4.554688 1.347656 -4.484375 1.234375 -4.390625 C 1.128906 -4.296875 1.039062 -4.1875 0.96875 -4.0625 C 0.925781 -4 0.882812 -3.957031 0.84375 -3.9375 C 0.800781 -3.925781 0.757812 -3.921875 0.71875 -3.921875 C 0.644531 -3.921875 0.578125 -3.945312 0.515625 -4 C 0.453125 -4.050781 0.421875 -4.109375 0.421875 -4.171875 C 0.421875 -4.234375 0.4375 -4.285156 0.46875 -4.328125 C 0.5 -4.378906 0.539062 -4.429688 0.59375 -4.484375 C 0.695312 -4.628906 0.828125 -4.757812 0.984375 -4.875 C 1.140625 -4.988281 1.304688 -5.082031 1.484375 -5.15625 C 1.671875 -5.226562 1.851562 -5.265625 2.03125 -5.265625 C 2.351562 -5.265625 2.628906 -5.203125 2.859375 -5.078125 C 3.097656 -4.953125 3.28125 -4.773438 3.40625 -4.546875 C 3.53125 -4.316406 3.59375 -4.050781 3.59375 -3.75 C 3.59375 -3.488281 3.515625 -3.195312 3.359375 -2.875 C 3.203125 -2.5625 2.972656 -2.242188 2.671875 -1.921875 L 1.375 -0.484375 L 1.296875 -0.5625 Z M 3.46875 -0.5625 "/></g></g></g><g fill="#292929" fill-opacity="1"><g transform="translate(182.182637, 306.971524)"><g><path d="M 2.234375 0.078125 C 1.816406 0.078125 1.472656 -0.0351562 1.203125 -0.265625 C 0.929688 -0.503906 0.722656 -0.828125 0.578125 -1.234375 C 0.441406 -1.640625 0.375 -2.09375 0.375 -2.59375 C 0.375 -3.101562 0.441406 -3.554688 0.578125 -3.953125 C 0.722656 -4.359375 0.929688 -4.675781 1.203125 -4.90625 C 1.472656 -5.144531 1.816406 -5.265625 2.234375 -5.265625 C 2.640625 -5.265625 2.976562 -5.144531 3.25 -4.90625 C 3.53125 -4.675781 3.738281 -4.359375 3.875 -3.953125 C 4.007812 -3.554688 4.078125 -3.101562 4.078125 -2.59375 C 4.078125 -2.09375 4.007812 -1.640625 3.875 -1.234375 C 3.738281 -0.828125 3.53125 -0.503906 3.25 -0.265625 C 2.976562 -0.0351562 2.640625 0.078125 2.234375 0.078125 Z M 2.234375 -0.53125 C 2.492188 -0.53125 2.710938 -0.613281 2.890625 -0.78125 C 3.066406 -0.945312 3.203125 -1.179688 3.296875 -1.484375 C 3.390625 -1.796875 3.4375 -2.164062 3.4375 -2.59375 C 3.4375 -3.019531 3.390625 -3.382812 3.296875 -3.6875 C 3.203125 -4 3.066406 -4.238281 2.890625 -4.40625 C 2.710938 -4.570312 2.492188 -4.65625 2.234375 -4.65625 C 1.972656 -4.65625 1.75 -4.570312 1.5625 -4.40625 C 1.382812 -4.238281 1.242188 -4 1.140625 -3.6875 C 1.046875 -3.382812 1 -3.019531 1 -2.59375 C 1 -2.164062 1.046875 -1.796875 1.140625 -1.484375 C 1.242188 -1.179688 1.382812 -0.945312 1.5625 -0.78125 C 1.75 -0.613281 1.972656 -0.53125 2.234375 -0.53125 Z M 2.234375 -0.53125 "/></g></g></g><g fill="#292929" fill-opacity="1"><g transform="translate(188.753224, 306.971524)"><g><path d="M 3.46875 -0.5625 C 3.550781 -0.5625 3.617188 -0.53125 3.671875 -0.46875 C 3.722656 -0.414062 3.75 -0.351562 3.75 -0.28125 C 3.75 -0.195312 3.722656 -0.128906 3.671875 -0.078125 C 3.617188 -0.0234375 3.550781 0 3.46875 0 L 0.78125 0 C 0.695312 0 0.625 -0.0234375 0.5625 -0.078125 C 0.507812 -0.128906 0.484375 -0.195312 0.484375 -0.28125 C 0.484375 -0.363281 0.507812 -0.4375 0.5625 -0.5 L 2.25 -2.328125 C 2.488281 -2.597656 2.671875 -2.847656 2.796875 -3.078125 C 2.921875 -3.316406 2.984375 -3.523438 2.984375 -3.703125 C 2.984375 -4.003906 2.894531 -4.242188 2.71875 -4.421875 C 2.539062 -4.609375 2.300781 -4.703125 2 -4.703125 C 1.863281 -4.703125 1.726562 -4.671875 1.59375 -4.609375 C 1.46875 -4.554688 1.347656 -4.484375 1.234375 -4.390625 C 1.128906 -4.296875 1.039062 -4.1875 0.96875 -4.0625 C 0.925781 -4 0.882812 -3.957031 0.84375 -3.9375 C 0.800781 -3.925781 0.757812 -3.921875 0.71875 -3.921875 C 0.644531 -3.921875 0.578125 -3.945312 0.515625 -4 C 0.453125 -4.050781 0.421875 -4.109375 0.421875 -4.171875 C 0.421875 -4.234375 0.4375 -4.285156 0.46875 -4.328125 C 0.5 -4.378906 0.539062 -4.429688 0.59375 -4.484375 C 0.695312 -4.628906 0.828125 -4.757812 0.984375 -4.875 C 1.140625 -4.988281 1.304688 -5.082031 1.484375 -5.15625 C 1.671875 -5.226562 1.851562 -5.265625 2.03125 -5.265625 C 2.351562 -5.265625 2.628906 -5.203125 2.859375 -5.078125 C 3.097656 -4.953125 3.28125 -4.773438 3.40625 -4.546875 C 3.53125 -4.316406 3.59375 -4.050781 3.59375 -3.75 C 3.59375 -3.488281 3.515625 -3.195312 3.359375 -2.875 C 3.203125 -2.5625 2.972656 -2.242188 2.671875 -1.921875 L 1.375 -0.484375 L 1.296875 -0.5625 Z M 3.46875 -0.5625 "/></g></g></g><g fill="#292929" fill-opacity="1"><g transform="translate(195.012748, 306.971524)"><g><path d="M 2.78125 0 C 2.695312 0 2.625 -0.0234375 2.5625 -0.078125 C 2.507812 -0.140625 2.484375 -0.210938 2.484375 -0.296875 L 2.484375 -4.359375 L 2.59375 -4.3125 L 0.828125 -2 L 0.796875 -2.09375 L 3.5625 -2.09375 C 3.644531 -2.09375 3.710938 -2.0625 3.765625 -2 C 3.816406 -1.945312 3.84375 -1.882812 3.84375 -1.8125 C 3.84375 -1.738281 3.816406 -1.675781 3.765625 -1.625 C 3.710938 -1.570312 3.644531 -1.546875 3.5625 -1.546875 L 0.390625 -1.546875 C 0.316406 -1.546875 0.25 -1.570312 0.1875 -1.625 C 0.125 -1.6875 0.09375 -1.757812 0.09375 -1.84375 C 0.09375 -1.914062 0.117188 -1.976562 0.171875 -2.03125 L 2.53125 -5.0625 C 2.5625 -5.101562 2.597656 -5.132812 2.640625 -5.15625 C 2.691406 -5.175781 2.738281 -5.1875 2.78125 -5.1875 C 2.863281 -5.1875 2.929688 -5.15625 2.984375 -5.09375 C 3.046875 -5.039062 3.078125 -4.972656 3.078125 -4.890625 L 3.078125 -0.296875 C 3.078125 -0.210938 3.046875 -0.140625 2.984375 -0.078125 C 2.929688 -0.0234375 2.863281 0 2.78125 0 Z M 2.78125 0 "/></g></g></g></svg>