<svg xmlns="http://www.w3.org/2000/svg" xmlns:xlink="http://www.w3.org/1999/xlink" width="1080" zoomAndPan="magnify" viewBox="0 0 375 374.999991" height="1080" preserveAspectRatio="xMidYMid meet" version="1.0"><defs><g/><clipPath id="807a287be2"><path d="M 92.167969 221.066406 L 187.5 221.066406 L 187.5 226.597656 L 92.167969 226.597656 Z M 92.167969 221.066406 " clip-rule="nonzero"/></clipPath></defs><g fill="#000000" fill-opacity="1"><g transform="translate(62.866784, 211.735224)"><g><path d="M 12.65625 -61 L 31.953125 -17.796875 L 51.25 -61 L 59.875 -61 L 31.953125 1.5 L 4.125 -61 Z M 12.65625 -61 "/></g></g></g><g fill="#000000" fill-opacity="1"><g transform="translate(118.90091, 211.735224)"><g><path d="M 9.09375 -61 L 16.953125 -61 L 16.953125 0 L 9.09375 0 Z M 9.09375 -61 "/></g></g></g><g fill="#000000" fill-opacity="1"><g transform="translate(136.797855, 211.735224)"><g><path d="M 61.9375 -15 C 59.125 -10.1875 55.375 -6.40625 50.6875 -3.65625 C 45.945312 -0.84375 40.796875 0.5625 35.234375 0.5625 C 29.609375 0.5625 24.453125 -0.84375 19.765625 -3.65625 C 15.023438 -6.40625 11.28125 -10.1875 8.53125 -15 C 5.78125 -19.738281 4.40625 -24.921875 4.40625 -30.546875 C 4.40625 -36.109375 5.78125 -41.296875 8.53125 -46.109375 C 11.34375 -50.847656 15.117188 -54.625 19.859375 -57.4375 C 24.546875 -60.1875 29.671875 -61.5625 35.234375 -61.5625 C 40.734375 -61.5625 45.882812 -60.1875 50.6875 -57.4375 C 55.4375 -54.625 59.1875 -50.847656 61.9375 -46.109375 C 64.6875 -41.296875 66.0625 -36.109375 66.0625 -30.546875 C 66.0625 -24.984375 64.6875 -19.800781 61.9375 -15 Z M 55.1875 -42.171875 C 53.125 -45.722656 50.316406 -48.5625 46.765625 -50.6875 C 43.203125 -52.75 39.359375 -53.78125 35.234375 -53.78125 C 31.046875 -53.78125 27.203125 -52.75 23.703125 -50.6875 C 20.140625 -48.5625 17.332031 -45.722656 15.28125 -42.171875 C 13.21875 -38.609375 12.1875 -34.734375 12.1875 -30.546875 C 12.1875 -26.296875 13.21875 -22.390625 15.28125 -18.828125 C 17.332031 -15.273438 20.140625 -12.46875 23.703125 -10.40625 C 27.265625 -8.28125 31.109375 -7.21875 35.234375 -7.21875 C 39.484375 -7.21875 43.351562 -8.28125 46.84375 -10.40625 C 50.40625 -12.46875 53.21875 -15.273438 55.28125 -18.828125 C 57.28125 -22.390625 58.28125 -26.296875 58.28125 -30.546875 C 58.28125 -34.734375 57.25 -38.609375 55.1875 -42.171875 Z M 55.1875 -42.171875 "/></g></g></g><g fill="#000000" fill-opacity="1"><g transform="translate(199.110095, 211.735224)"><g><path d="M 50.96875 0 L 41.140625 0 L 17.984375 -32.703125 L 26.796875 -32.703125 C 29.046875 -32.703125 31.046875 -32.859375 32.796875 -33.171875 C 34.484375 -33.421875 35.796875 -33.734375 36.734375 -34.109375 C 38.671875 -34.984375 40.203125 -36.265625 41.328125 -37.953125 C 42.453125 -39.578125 43.015625 -41.265625 43.015625 -43.015625 C 43.015625 -44.765625 42.484375 -46.414062 41.421875 -47.96875 C 40.359375 -49.46875 38.828125 -50.71875 36.828125 -51.71875 C 34.828125 -52.65625 32.515625 -53.125 29.890625 -53.125 L 15.734375 -53.125 L 15.921875 0 L 7.96875 0 L 7.96875 -61 L 29.890625 -61 C 32.828125 -61 35.578125 -60.53125 38.140625 -59.59375 C 40.703125 -58.65625 42.953125 -57.3125 44.890625 -55.5625 C 46.753906 -53.875 48.21875 -51.9375 49.28125 -49.75 C 50.28125 -47.570312 50.78125 -45.328125 50.78125 -43.015625 C 50.78125 -39.328125 49.65625 -36.015625 47.40625 -33.078125 C 45.539062 -30.578125 43.015625 -28.546875 39.828125 -26.984375 C 37.390625 -26.109375 35.234375 -25.671875 33.359375 -25.671875 Z M 50.96875 0 "/></g></g></g><g fill="#000000" fill-opacity="1"><g transform="translate(247.741669, 211.735224)"><g><path d="M 46.390625 -11.8125 L 18.453125 -11.8125 L 13.03125 0 L 4.40625 0 L 32.984375 -61.65625 L 60.0625 0 L 51.53125 0 Z M 43.015625 -19.578125 L 32.703125 -42.734375 L 22.015625 -19.578125 Z M 43.015625 -19.578125 "/></g></g></g><g clip-path="url(#807a287be2)"><path fill="#2e2e2e" d="M 92.167969 221.066406 L 187.492188 221.066406 L 187.492188 226.597656 L 92.167969 226.597656 Z M 92.167969 221.066406 " fill-opacity="1" fill-rule="nonzero"/></g><g fill="#000000" fill-opacity="1"><g transform="translate(199.139113, 226.586733)"><g><path d="M 3.28125 0.109375 C 2.707031 0.109375 2.195312 -0.0078125 1.75 -0.25 C 1.3125 -0.5 0.96875 -0.835938 0.71875 -1.265625 C 0.46875 -1.703125 0.34375 -2.203125 0.34375 -2.765625 C 0.34375 -3.328125 0.46875 -3.820312 0.71875 -4.25 C 0.96875 -4.6875 1.3125 -5.023438 1.75 -5.265625 C 2.195312 -5.515625 2.707031 -5.640625 3.28125 -5.640625 C 3.863281 -5.640625 4.375 -5.515625 4.8125 -5.265625 C 5.25 -5.023438 5.59375 -4.6875 5.84375 -4.25 C 6.101562 -3.820312 6.234375 -3.328125 6.234375 -2.765625 C 6.234375 -2.203125 6.101562 -1.703125 5.84375 -1.265625 C 5.59375 -0.835938 5.25 -0.5 4.8125 -0.25 C 4.375 -0.0078125 3.863281 0.109375 3.28125 0.109375 Z M 1.625 -2.765625 C 1.625 -2.429688 1.691406 -2.132812 1.828125 -1.875 C 1.972656 -1.625 2.171875 -1.425781 2.421875 -1.28125 C 2.671875 -1.144531 2.957031 -1.078125 3.28125 -1.078125 C 3.613281 -1.078125 3.90625 -1.144531 4.15625 -1.28125 C 4.40625 -1.425781 4.597656 -1.625 4.734375 -1.875 C 4.878906 -2.132812 4.953125 -2.429688 4.953125 -2.765625 C 4.953125 -3.097656 4.878906 -3.390625 4.734375 -3.640625 C 4.597656 -3.890625 4.40625 -4.082031 4.15625 -4.21875 C 3.90625 -4.363281 3.613281 -4.4375 3.28125 -4.4375 C 2.957031 -4.4375 2.671875 -4.363281 2.421875 -4.21875 C 2.171875 -4.082031 1.972656 -3.890625 1.828125 -3.640625 C 1.691406 -3.390625 1.625 -3.097656 1.625 -2.765625 Z M 1.625 -2.765625 "/></g></g></g><g fill="#000000" fill-opacity="1"><g transform="translate(207.626312, 226.586733)"><g><path d="M 0.65625 0 L 0.65625 -5.53125 L 1.734375 -5.53125 L 4.171875 -2.15625 L 4.171875 -5.53125 L 5.40625 -5.53125 L 5.40625 0 L 4.34375 0 L 1.90625 -3.390625 L 1.90625 0 Z M 0.65625 0 "/></g></g></g><g fill="#000000" fill-opacity="1"><g transform="translate(215.616644, 226.586733)"><g><path d="M 0.65625 0 L 0.65625 -5.53125 L 1.921875 -5.53125 L 1.921875 -1.171875 L 4.328125 -1.171875 L 4.328125 0 Z M 0.65625 0 "/></g></g></g><g fill="#000000" fill-opacity="1"><g transform="translate(222.076946, 226.586733)"><g><path d="M 0.65625 0 L 0.65625 -5.53125 L 1.921875 -5.53125 L 1.921875 0 Z M 0.65625 0 "/></g></g></g><g fill="#000000" fill-opacity="1"><g transform="translate(226.573443, 226.586733)"><g><path d="M 0.65625 0 L 0.65625 -5.53125 L 1.734375 -5.53125 L 4.171875 -2.15625 L 4.171875 -5.53125 L 5.40625 -5.53125 L 5.40625 0 L 4.34375 0 L 1.90625 -3.390625 L 1.90625 0 Z M 0.65625 0 "/></g></g></g><g fill="#000000" fill-opacity="1"><g transform="translate(234.563776, 226.586733)"><g><path d="M 0.65625 0 L 0.65625 -5.53125 L 4.296875 -5.53125 L 4.296875 -4.46875 L 1.90625 -4.46875 L 1.90625 -3.328125 L 4.078125 -3.328125 L 4.078125 -2.265625 L 1.90625 -2.265625 L 1.90625 -1.0625 L 4.375 -1.0625 L 4.375 0 Z M 0.65625 0 "/></g></g></g><g fill="#000000" fill-opacity="1"><g transform="translate(241.260686, 226.586733)"><g/></g></g><g fill="#000000" fill-opacity="1"><g transform="translate(245.031606, 226.586733)"><g><path d="M 2.59375 0.109375 C 2.125 0.109375 1.722656 0.0351562 1.390625 -0.109375 C 1.054688 -0.265625 0.796875 -0.484375 0.609375 -0.765625 C 0.429688 -1.046875 0.34375 -1.378906 0.34375 -1.765625 L 1.578125 -1.765625 C 1.578125 -1.492188 1.664062 -1.285156 1.84375 -1.140625 C 2.03125 -0.992188 2.273438 -0.921875 2.578125 -0.921875 C 2.835938 -0.921875 3.046875 -0.972656 3.203125 -1.078125 C 3.359375 -1.179688 3.4375 -1.320312 3.4375 -1.5 C 3.4375 -1.695312 3.34375 -1.851562 3.15625 -1.96875 C 2.96875 -2.09375 2.679688 -2.195312 2.296875 -2.28125 C 1.648438 -2.425781 1.171875 -2.632812 0.859375 -2.90625 C 0.546875 -3.1875 0.390625 -3.550781 0.390625 -4 C 0.390625 -4.507812 0.570312 -4.910156 0.9375 -5.203125 C 1.3125 -5.492188 1.816406 -5.640625 2.453125 -5.640625 C 2.890625 -5.640625 3.269531 -5.5625 3.59375 -5.40625 C 3.914062 -5.257812 4.160156 -5.050781 4.328125 -4.78125 C 4.503906 -4.507812 4.59375 -4.1875 4.59375 -3.8125 L 3.390625 -3.8125 C 3.390625 -4.0625 3.304688 -4.253906 3.140625 -4.390625 C 2.984375 -4.535156 2.757812 -4.609375 2.46875 -4.609375 C 2.207031 -4.609375 2 -4.554688 1.84375 -4.453125 C 1.695312 -4.347656 1.625 -4.207031 1.625 -4.03125 C 1.625 -3.851562 1.707031 -3.707031 1.875 -3.59375 C 2.039062 -3.476562 2.332031 -3.375 2.75 -3.28125 C 3.4375 -3.113281 3.929688 -2.890625 4.234375 -2.609375 C 4.546875 -2.335938 4.703125 -1.984375 4.703125 -1.546875 C 4.703125 -1.023438 4.515625 -0.617188 4.140625 -0.328125 C 3.765625 -0.0351562 3.25 0.109375 2.59375 0.109375 Z M 2.59375 0.109375 "/></g></g></g><g fill="#000000" fill-opacity="1"><g transform="translate(252.004548, 226.586733)"><g><path d="M 1.984375 0 L 1.984375 -4.34375 L 0.234375 -4.34375 L 0.234375 -5.53125 L 5 -5.53125 L 5 -4.34375 L 3.25 -4.34375 L 3.25 0 Z M 1.984375 0 "/></g></g></g><g fill="#000000" fill-opacity="1"><g transform="translate(259.151005, 226.586733)"><g><path d="M 3.28125 0.109375 C 2.707031 0.109375 2.195312 -0.0078125 1.75 -0.25 C 1.3125 -0.5 0.96875 -0.835938 0.71875 -1.265625 C 0.46875 -1.703125 0.34375 -2.203125 0.34375 -2.765625 C 0.34375 -3.328125 0.46875 -3.820312 0.71875 -4.25 C 0.96875 -4.6875 1.3125 -5.023438 1.75 -5.265625 C 2.195312 -5.515625 2.707031 -5.640625 3.28125 -5.640625 C 3.863281 -5.640625 4.375 -5.515625 4.8125 -5.265625 C 5.25 -5.023438 5.59375 -4.6875 5.84375 -4.25 C 6.101562 -3.820312 6.234375 -3.328125 6.234375 -2.765625 C 6.234375 -2.203125 6.101562 -1.703125 5.84375 -1.265625 C 5.59375 -0.835938 5.25 -0.5 4.8125 -0.25 C 4.375 -0.0078125 3.863281 0.109375 3.28125 0.109375 Z M 1.625 -2.765625 C 1.625 -2.429688 1.691406 -2.132812 1.828125 -1.875 C 1.972656 -1.625 2.171875 -1.425781 2.421875 -1.28125 C 2.671875 -1.144531 2.957031 -1.078125 3.28125 -1.078125 C 3.613281 -1.078125 3.90625 -1.144531 4.15625 -1.28125 C 4.40625 -1.425781 4.597656 -1.625 4.734375 -1.875 C 4.878906 -2.132812 4.953125 -2.429688 4.953125 -2.765625 C 4.953125 -3.097656 4.878906 -3.390625 4.734375 -3.640625 C 4.597656 -3.890625 4.40625 -4.082031 4.15625 -4.21875 C 3.90625 -4.363281 3.613281 -4.4375 3.28125 -4.4375 C 2.957031 -4.4375 2.671875 -4.363281 2.421875 -4.21875 C 2.171875 -4.082031 1.972656 -3.890625 1.828125 -3.640625 C 1.691406 -3.390625 1.625 -3.097656 1.625 -2.765625 Z M 1.625 -2.765625 "/></g></g></g><g fill="#000000" fill-opacity="1"><g transform="translate(267.638206, 226.586733)"><g><path d="M 0.65625 0 L 0.65625 -5.53125 L 3.015625 -5.53125 C 3.441406 -5.53125 3.804688 -5.453125 4.109375 -5.296875 C 4.421875 -5.140625 4.660156 -4.921875 4.828125 -4.640625 C 5.003906 -4.359375 5.09375 -4.019531 5.09375 -3.625 C 5.09375 -3.21875 5 -2.867188 4.8125 -2.578125 C 4.625 -2.285156 4.367188 -2.066406 4.046875 -1.921875 L 5.1875 0 L 3.734375 0 L 2.75 -1.71875 L 1.921875 -1.71875 L 1.921875 0 Z M 1.90625 -2.78125 L 2.859375 -2.78125 C 3.171875 -2.78125 3.40625 -2.851562 3.5625 -3 C 3.726562 -3.144531 3.8125 -3.347656 3.8125 -3.609375 C 3.8125 -3.878906 3.726562 -4.085938 3.5625 -4.234375 C 3.40625 -4.378906 3.171875 -4.453125 2.859375 -4.453125 L 1.90625 -4.453125 Z M 1.90625 -2.78125 "/></g></g></g><g fill="#000000" fill-opacity="1"><g transform="translate(275.108016, 226.586733)"><g><path d="M 0.65625 0 L 0.65625 -5.53125 L 4.296875 -5.53125 L 4.296875 -4.46875 L 1.90625 -4.46875 L 1.90625 -3.328125 L 4.078125 -3.328125 L 4.078125 -2.265625 L 1.90625 -2.265625 L 1.90625 -1.0625 L 4.375 -1.0625 L 4.375 0 Z M 0.65625 0 "/></g></g></g><g fill="#000000" fill-opacity="1"><g transform="translate(130.925415, 239.782499)"><g><path d="M 0.21875 0 L 1.15625 -4.71875 L 4.25 -4.71875 L 4.078125 -3.8125 L 2.0625 -3.8125 L 1.859375 -2.828125 L 3.703125 -2.828125 L 3.515625 -1.9375 L 1.6875 -1.9375 L 1.484375 -0.90625 L 3.5625 -0.90625 L 3.390625 0 Z M 0.21875 0 "/></g></g></g><g fill="#000000" fill-opacity="1"><g transform="translate(135.008472, 239.782499)"><g><path d="M 1.90625 0.09375 C 1.507812 0.09375 1.175781 0.03125 0.90625 -0.09375 C 0.632812 -0.226562 0.441406 -0.410156 0.328125 -0.640625 C 0.210938 -0.878906 0.1875 -1.164062 0.25 -1.5 L 1.28125 -1.5 C 1.25 -1.28125 1.289062 -1.101562 1.40625 -0.96875 C 1.53125 -0.84375 1.722656 -0.78125 1.984375 -0.78125 C 2.222656 -0.78125 2.414062 -0.828125 2.5625 -0.921875 C 2.707031 -1.015625 2.796875 -1.132812 2.828125 -1.28125 C 2.859375 -1.445312 2.816406 -1.582031 2.703125 -1.6875 C 2.585938 -1.800781 2.367188 -1.894531 2.046875 -1.96875 C 1.523438 -2.070312 1.140625 -2.253906 0.890625 -2.515625 C 0.648438 -2.773438 0.578125 -3.113281 0.671875 -3.53125 C 0.742188 -3.914062 0.945312 -4.222656 1.28125 -4.453125 C 1.613281 -4.691406 2.050781 -4.8125 2.59375 -4.8125 C 3.175781 -4.8125 3.609375 -4.671875 3.890625 -4.390625 C 4.179688 -4.109375 4.289062 -3.734375 4.21875 -3.265625 L 3.1875 -3.265625 C 3.21875 -3.460938 3.179688 -3.625 3.078125 -3.75 C 2.972656 -3.875 2.785156 -3.9375 2.515625 -3.9375 C 2.296875 -3.9375 2.113281 -3.890625 1.96875 -3.796875 C 1.832031 -3.710938 1.75 -3.601562 1.71875 -3.46875 C 1.6875 -3.289062 1.726562 -3.148438 1.84375 -3.046875 C 1.96875 -2.941406 2.195312 -2.851562 2.53125 -2.78125 C 3.050781 -2.65625 3.425781 -2.460938 3.65625 -2.203125 C 3.894531 -1.941406 3.976562 -1.613281 3.90625 -1.21875 C 3.820312 -0.8125 3.609375 -0.488281 3.265625 -0.25 C 2.921875 -0.0195312 2.46875 0.09375 1.90625 0.09375 Z M 1.90625 0.09375 "/></g></g></g><g fill="#000000" fill-opacity="1"><g transform="translate(139.31351, 239.782499)"><g><path d="M 1.328125 0 L 2.078125 -3.703125 L 0.59375 -3.703125 L 0.796875 -4.71875 L 4.84375 -4.71875 L 4.640625 -3.703125 L 3.171875 -3.703125 L 2.421875 0 Z M 1.328125 0 "/></g></g></g><g fill="#000000" fill-opacity="1"><g transform="translate(143.773261, 239.782499)"><g><path d="M 0.21875 0 L 1.15625 -4.71875 L 2.984375 -4.71875 C 3.472656 -4.71875 3.882812 -4.609375 4.21875 -4.390625 C 4.5625 -4.171875 4.800781 -3.875 4.9375 -3.5 C 5.082031 -3.132812 5.109375 -2.710938 5.015625 -2.234375 C 4.921875 -1.773438 4.738281 -1.378906 4.46875 -1.046875 C 4.207031 -0.710938 3.875 -0.453125 3.46875 -0.265625 C 3.0625 -0.0859375 2.601562 0 2.09375 0 Z M 1.5 -0.984375 L 2.21875 -0.984375 C 2.5 -0.984375 2.757812 -1.039062 3 -1.15625 C 3.238281 -1.269531 3.4375 -1.429688 3.59375 -1.640625 C 3.757812 -1.847656 3.867188 -2.09375 3.921875 -2.375 C 4.003906 -2.789062 3.945312 -3.117188 3.75 -3.359375 C 3.550781 -3.609375 3.238281 -3.734375 2.8125 -3.734375 L 2.046875 -3.734375 Z M 1.5 -0.984375 "/></g></g></g><g fill="#000000" fill-opacity="1"><g transform="translate(131.077759, 245.782498)"><g><path d="M 0 0 L 0.140625 -0.75 L 2.40625 -2.421875 C 2.613281 -2.578125 2.769531 -2.71875 2.875 -2.84375 C 2.976562 -2.976562 3.039062 -3.117188 3.0625 -3.265625 C 3.101562 -3.453125 3.070312 -3.601562 2.96875 -3.71875 C 2.875 -3.832031 2.722656 -3.890625 2.515625 -3.890625 C 2.296875 -3.890625 2.109375 -3.820312 1.953125 -3.6875 C 1.804688 -3.550781 1.707031 -3.363281 1.65625 -3.125 L 0.65625 -3.125 C 0.769531 -3.664062 0.992188 -4.082031 1.328125 -4.375 C 1.671875 -4.664062 2.097656 -4.8125 2.609375 -4.8125 C 2.960938 -4.8125 3.257812 -4.738281 3.5 -4.59375 C 3.75 -4.457031 3.925781 -4.269531 4.03125 -4.03125 C 4.132812 -3.800781 4.15625 -3.53125 4.09375 -3.21875 C 4.03125 -2.945312 3.910156 -2.6875 3.734375 -2.4375 C 3.554688 -2.195312 3.285156 -1.953125 2.921875 -1.703125 L 1.921875 -0.9375 L 3.71875 -0.9375 L 3.53125 0 Z M 0 0 "/></g></g></g><g fill="#000000" fill-opacity="1"><g transform="translate(135.416431, 245.782498)"><g><path d="M 2.078125 0.09375 C 1.648438 0.09375 1.296875 -0.00390625 1.015625 -0.203125 C 0.742188 -0.410156 0.554688 -0.703125 0.453125 -1.078125 C 0.359375 -1.460938 0.363281 -1.914062 0.46875 -2.4375 C 0.613281 -3.1875 0.894531 -3.769531 1.3125 -4.1875 C 1.738281 -4.601562 2.257812 -4.8125 2.875 -4.8125 C 3.300781 -4.8125 3.65625 -4.707031 3.9375 -4.5 C 4.21875 -4.300781 4.40625 -4.007812 4.5 -3.625 C 4.601562 -3.25 4.601562 -2.800781 4.5 -2.28125 C 4.351562 -1.53125 4.066406 -0.945312 3.640625 -0.53125 C 3.222656 -0.113281 2.703125 0.09375 2.078125 0.09375 Z M 1.5 -2.34375 C 1.40625 -1.863281 1.414062 -1.492188 1.53125 -1.234375 C 1.644531 -0.984375 1.851562 -0.859375 2.15625 -0.859375 C 2.476562 -0.859375 2.75 -0.988281 2.96875 -1.25 C 3.195312 -1.519531 3.363281 -1.894531 3.46875 -2.375 C 3.5625 -2.84375 3.550781 -3.207031 3.4375 -3.46875 C 3.320312 -3.726562 3.109375 -3.859375 2.796875 -3.859375 C 2.484375 -3.859375 2.210938 -3.722656 1.984375 -3.453125 C 1.765625 -3.179688 1.601562 -2.8125 1.5 -2.34375 Z M 1.5 -2.34375 "/></g></g></g><g fill="#000000" fill-opacity="1"><g transform="translate(140.138515, 245.782498)"><g><path d="M 0 0 L 0.140625 -0.75 L 2.40625 -2.421875 C 2.613281 -2.578125 2.769531 -2.71875 2.875 -2.84375 C 2.976562 -2.976562 3.039062 -3.117188 3.0625 -3.265625 C 3.101562 -3.453125 3.070312 -3.601562 2.96875 -3.71875 C 2.875 -3.832031 2.722656 -3.890625 2.515625 -3.890625 C 2.296875 -3.890625 2.109375 -3.820312 1.953125 -3.6875 C 1.804688 -3.550781 1.707031 -3.363281 1.65625 -3.125 L 0.65625 -3.125 C 0.769531 -3.664062 0.992188 -4.082031 1.328125 -4.375 C 1.671875 -4.664062 2.097656 -4.8125 2.609375 -4.8125 C 2.960938 -4.8125 3.257812 -4.738281 3.5 -4.59375 C 3.75 -4.457031 3.925781 -4.269531 4.03125 -4.03125 C 4.132812 -3.800781 4.15625 -3.53125 4.09375 -3.21875 C 4.03125 -2.945312 3.910156 -2.6875 3.734375 -2.4375 C 3.554688 -2.195312 3.285156 -1.953125 2.921875 -1.703125 L 1.921875 -0.9375 L 3.71875 -0.9375 L 3.53125 0 Z M 0 0 "/></g></g></g><g fill="#000000" fill-opacity="1"><g transform="translate(144.477187, 245.782498)"><g><path d="M 0 -0.859375 L 0.140625 -1.609375 L 2.296875 -4.71875 L 3.46875 -4.71875 L 1.4375 -1.765625 L 2.59375 -1.765625 L 3.015625 -3.078125 L 3.859375 -3.078125 L 3.609375 -1.796875 L 4.1875 -1.796875 L 4 -0.859375 L 3.421875 -0.859375 L 3.25 0 L 2.1875 0 L 2.34375 -0.859375 Z M 0 -0.859375 "/></g></g></g></svg>